<svg width="20" height="24" viewBox="0 0 20 24" fill="none" xmlns="http://www.w3.org/2000/svg">
<path d="M3.495 2H20V0H3C1.344 0 0 1.343 0 3V21C0 22.657 1.344 24 3 24H20V4H3.495C2.119 4 2.119 2 3.495 2ZM11.056 9.273C11.494 8.901 12.14 8.91 12.502 9.291C12.863 9.673 12.804 10.283 12.367 10.655C11.93 11.027 11.283 11.019 10.921 10.637C10.56 10.255 10.619 9.645 11.056 9.273ZM11.639 13.84C11.012 15.348 10.564 16.365 10.308 17.15C9.934 18.294 10.877 17.83 11.801 16.977C11.928 17.183 11.968 17.248 12.095 17.485C10.041 19.438 7.764 19.61 8.472 17.365C8.936 15.896 9.814 14.136 9.968 13.69C10.193 13.044 9.794 12.756 8.539 13.861L8.261 13.336C9.692 11.778 12.642 11.426 11.639 13.84Z" fill="white"/>
</svg>
