<svg width="24" height="22" viewBox="0 0 24 22" fill="none" xmlns="http://www.w3.org/2000/svg">
<path fill-rule="evenodd" clip-rule="evenodd" d="M17.416 1.42172C18.253 0.813573 18.947 0.309337 19.4677 0.0982641C21.4587 -0.707726 23.9267 3.53522 23.9297 9.49415C23.9337 15.4481 21.6057 19.658 19.4047 18.916C18.6207 18.6522 17.7824 18.0251 16.8167 17.3027C15.3113 16.1766 13.4965 14.8189 11.0957 14.2451C10.3687 13.1361 9.93069 11.4441 9.93069 9.58315C9.93069 7.61917 10.4137 5.83619 11.2157 4.73721C13.6677 4.14511 15.8063 2.59126 17.416 1.42172ZM6.97169 22H10.1817C10.7927 22 11.2797 21.197 10.5217 20.579C10.0717 20.212 9.73769 19.723 9.55969 19.171L8.64169 16.0001H4.02669L5.61769 20.993C5.81469 21.573 6.35969 22 6.97169 22ZM21.1717 15.5701C20.4527 17.2261 19.1847 17.2551 18.4517 15.5711C18.0157 14.5691 17.7207 12.7991 17.5597 11.6101H17.9397C19.1137 11.6101 20.0647 10.6561 20.0647 9.47915C20.0647 8.30217 19.1137 7.34718 17.9397 7.34718H17.5497C17.7097 6.13719 18.0877 4.40021 18.5237 3.45722C19.2877 1.80524 20.4647 1.77724 21.2437 3.45622C22.5587 6.29419 22.6117 12.2501 21.1717 15.5701ZM4.36569 14.0001H8.73669C8.22369 12.7351 7.93369 11.2211 7.93369 9.59415C7.93369 7.88717 8.24869 6.30019 8.80969 5.00021H4.36569C1.91369 5.00021 -0.0703125 7.04718 -0.0703125 9.50015C-0.0703125 11.9531 1.91369 14.0001 4.36569 14.0001Z" fill="white"/>
</svg>
