<?xml version="1.0" encoding="utf-8"?>
<!-- Generator: Adobe Illustrator 25.2.2, SVG Export Plug-In . SVG Version: 6.00 Build 0)  -->
<svg version="1.1" id="Layer_1" xmlns="http://www.w3.org/2000/svg" xmlns:xlink="http://www.w3.org/1999/xlink" x="0px" y="0px"
	 viewBox="0 0 80 80" style="enable-background:new 0 0 80 80;" xml:space="preserve">
<style type="text/css">
	.st0{fill:#FFFFFF;}
</style>
<path class="st0" d="M67,52.3c2.1,0,2.9-2.6,2.9-2.6s8.7-25.9,9.3-28.5c0.6-2.5-1.6-4.2-3.5-4.2c-2,0-53.2,0-53.2,0
	s-1.2-5.2-1.4-6.6C20.9,8.9,19.3,7,17.6,7C15.9,7,3.9,7,2,7S0,9.2,0,9.2s0,4.1,0,4.7c0,0.6,0.2,0.9,0.9,0.9s12.9,0,12.9,0l11.1,40.8
	c-2.6,1.8-4.3,4.7-4.3,8.1c0,5.4,4.4,9.8,9.8,9.8c4,0,7.4-2.4,8.9-5.8h18.1c1.5,3.4,4.9,5.8,8.9,5.8c5.4,0,9.8-4.4,9.8-9.8
	s-4.4-9.8-9.8-9.8c-4,0-7.4,2.4-8.9,5.8H39.3c-1.3-3-4.2-5.2-7.6-5.7L31,52.3C31,52.3,64.9,52.3,67,52.3z M66.3,59.8
	c2.1,0,3.8,1.7,3.8,3.8c0,2.1-1.7,3.8-3.8,3.8c-2.1,0-3.8-1.7-3.8-3.8C62.5,61.5,64.2,59.8,66.3,59.8z M34.2,63.6
	c0,2.1-1.7,3.8-3.8,3.8c-2.1,0-3.8-1.7-3.8-3.8c0-2.1,1.7-3.8,3.8-3.8C32.5,59.8,34.2,61.5,34.2,63.6z"/>
</svg>
