<svg width="24" height="24" viewBox="0 0 24 24" fill="none" xmlns="http://www.w3.org/2000/svg">
<path fill-rule="evenodd" clip-rule="evenodd" d="M10.6125 13.3373C11.0098 13.3373 11.0098 13.7183 11.0098 13.7183V23.7162C11.0098 23.7162 11.0098 24 10.7442 24H2.77263C2.1515 24 1.64319 23.4951 1.64319 22.8782V14.459C1.64319 13.842 2.1515 13.3373 2.77263 13.3373H10.6125ZM21.3157 13.3373C21.9368 13.3373 22.445 13.842 22.445 14.459V22.8782C22.445 23.4951 21.9368 24 21.3157 24H13.3618C13.0749 24 13.079 23.7258 13.079 23.7258V13.8305C13.079 13.8305 13.0074 13.3373 13.4843 13.3373H21.3157ZM11.1418 6.85803V11.9236C11.1418 11.9236 11.1418 12.223 10.7946 12.223H1.62934C1.0082 12.223 0.5 11.7181 0.5 11.1012V7.59949C0.5 6.98297 1.0082 6.4781 1.62934 6.4781H10.7637C11.1418 6.4781 11.1418 6.85803 11.1418 6.85803ZM22.5871 6.4781C23.2082 6.4781 23.7165 6.98297 23.7165 7.59949V11.1012C23.7165 11.7181 23.2082 12.223 22.5871 12.223H13.4994C13.0751 12.223 13.0751 11.9308 13.0751 11.9308V6.80818C13.0751 6.80818 13.0751 6.4781 13.4238 6.4781H22.5871ZM5.85079 1.79767C5.30196 1.79767 5.11312 1.95009 5.00944 2.47692C4.92469 2.90782 5.03156 3.0583 5.06694 3.10774C5.2135 3.31451 5.59602 3.48685 6.14361 3.59299C6.43901 3.65051 6.80414 3.68085 7.19869 3.68085C8.06739 3.68085 8.83231 3.55039 9.33979 3.40707C9.37672 3.39675 9.43421 3.35364 9.37271 3.31686C8.70899 2.78012 7.4948 2.06308 6.48313 1.86673C6.24729 1.82127 6.03438 1.79767 5.85079 1.79767ZM7.1991 5.47893C6.68246 5.47893 6.21036 5.43827 5.79648 5.35767C4.74511 5.15376 4.02266 4.75667 3.58759 4.14414C3.19747 3.59504 3.07857 2.91824 3.23285 2.13254C3.50325 0.757398 4.43336 0 5.85079 0C6.15091 0 6.48035 0.034325 6.82985 0.102158C7.71985 0.274907 8.85844 0.781712 9.87494 1.4581C11.6001 2.60574 11.6853 3.3189 11.5997 3.75583C11.4732 4.39749 10.8693 4.85648 9.75275 5.15815C8.99863 5.36206 8.0677 5.47893 7.1991 5.47893ZM14.5767 3.30613C14.5177 3.34005 14.5461 3.39348 14.5767 3.40227C15.0842 3.54712 15.8571 3.68085 16.7354 3.68085C17.1308 3.68085 17.4956 3.65051 17.7913 3.59299C18.3385 3.48685 18.721 3.31451 18.8681 3.10774C18.903 3.0583 19.0099 2.90782 18.925 2.47733C18.8215 1.95009 18.633 1.79808 18.0838 1.79808C17.9002 1.79808 17.6876 1.82127 17.4518 1.86673C16.4397 2.06308 15.24 2.76899 14.5767 3.30613ZM16.7358 5.47893C15.8672 5.47893 14.9359 5.36206 14.1817 5.15815C13.0653 4.85648 12.4614 4.39749 12.3352 3.75583C12.2492 3.31931 12.3344 2.60574 14.0597 1.4581C15.0762 0.782121 16.2147 0.274907 17.1046 0.102566C17.4546 0.034325 17.7841 0 18.0838 0C19.5016 0 20.4313 0.757398 20.7017 2.13254C20.8564 2.91824 20.7371 3.59545 20.3474 4.14414C19.9122 4.75708 19.1895 5.15417 18.138 5.35808C17.7246 5.43827 17.2525 5.47893 16.7358 5.47893Z" fill="white"/>
</svg>
