<?xml version="1.0" encoding="utf-8"?>
<!-- Generator: Adobe Illustrator 25.2.2, SVG Export Plug-In . SVG Version: 6.00 Build 0)  -->
<svg version="1.1" id="Layer_1" xmlns="http://www.w3.org/2000/svg" xmlns:xlink="http://www.w3.org/1999/xlink" x="0px" y="0px"
	 viewBox="0 0 89.1 54" style="enable-background:new 0 0 89.1 54;" xml:space="preserve">
<style type="text/css">
	.st0{fill-rule:evenodd;clip-rule:evenodd;fill:#FFFFFF;}
	.st1{fill-rule:evenodd;clip-rule:evenodd;fill:#33348E;}
	.st2{fill:#FFFFFF;}
	.st3{fill-rule:evenodd;clip-rule:evenodd;fill:#CC2229;}
	.st4{fill:#CC2229;}
</style>
<path d="M50,27C50,13.5,39,2.5,25.5,2.5C12,2.5,1,13.5,1,27s11,24.5,24.5,24.5C39,51.5,50,40.5,50,27z M22.5,43.2L9.8,30.4
	c-1.4-1.4-1.4-3.6,0-5c1.4-1.4,3.6-1.4,5,0l6.8,6.8V14.1c0-2,1.6-3.5,3.5-3.5c2,0,3.5,1.6,3.5,3.5l0,18.4l7.1-7.1
	c1.4-1.4,3.6-1.4,5,0c1.4,1.4,1.4,3.6,0,5L28.1,43.2c-0.8,0.8-1.8,1.1-2.8,1C24.3,44.2,23.3,43.9,22.5,43.2z"/>
<path class="st0" d="M89.1,54V0H0v54H89.1z"/>
<path class="st1" d="M89.1,54V0H0v54H89.1z"/>
<path class="st0" d="M54.9,54V35.2h34.2V18.8H54.9V0H33.8v18.8H0v16.3h33.8V54H54.9z"/>
<path class="st2" d="M10.9,0l78.3,47.4V54H78.5L0,6.5V0H10.9z"/>
<path class="st2" d="M78.3,0L0,47.4V54h10.7L89.1,6.5V0H78.3z"/>
<path class="st3" d="M89.1,21.8H51V0H38.2v21.8H0v10.4h38.2V54H51V32.2h38.1V21.8z"/>
<path class="st4" d="M0,0l31,18.8h-6.9L0,4.2L0,0L0,0L0,0z M0,53.9L0,53.9L6.8,54l27-16.4v-2.4h-2.9L0,53.9z M89.1,54v-3.9
	L64.6,35.2h-6.9l31,18.8H89.1z M81.8,0L54.9,16.4v2.5h2.9L88.7,0L81.8,0L81.8,0z"/>
</svg>
