<svg width="22" height="21" viewBox="0 0 22 21" fill="none" xmlns="http://www.w3.org/2000/svg">
<g filter="url(#filter0_i)">
<path fill-rule="evenodd" clip-rule="evenodd" d="M11.5257 17.7418C11.2035 17.5427 10.7965 17.5427 10.4743 17.7418L5.64419 20.7266C4.88535 21.1956 3.93876 20.5115 4.14581 19.6438L5.476 14.0692C5.56288 13.7051 5.43915 13.323 5.15536 13.0789L0.82093 9.35125C0.146808 8.77149 0.507892 7.66616 1.39427 7.59618L7.06061 7.14878C7.43647 7.11911 7.7637 6.88054 7.90693 6.53177L10.075 1.2525C10.4145 0.425679 11.5855 0.42568 11.925 1.2525L14.0931 6.53177C14.2363 6.88054 14.5635 7.11911 14.9394 7.14878L20.6057 7.59618C21.4921 7.66616 21.8532 8.77149 21.1791 9.35125L16.8446 13.0789C16.5609 13.323 16.4371 13.7051 16.524 14.0692L17.8542 19.6438C18.0612 20.5115 17.1147 21.1956 16.3558 20.7266L11.5257 17.7418Z" fill="#DEDEDE"/>
</g>
<defs>
<filter id="filter0_i" x="0.47168" y="0.632385" width="21.0566" height="22.2467" filterUnits="userSpaceOnUse" color-interpolation-filters="sRGB">
<feFlood flood-opacity="0" result="BackgroundImageFix"/>
<feBlend mode="normal" in="SourceGraphic" in2="BackgroundImageFix" result="shape"/>
<feColorMatrix in="SourceAlpha" type="matrix" values="0 0 0 0 0 0 0 0 0 0 0 0 0 0 0 0 0 0 127 0" result="hardAlpha"/>
<feOffset dy="2"/>
<feGaussianBlur stdDeviation="1"/>
<feComposite in2="hardAlpha" operator="arithmetic" k2="-1" k3="1"/>
<feColorMatrix type="matrix" values="0 0 0 0 0 0 0 0 0 0 0 0 0 0 0 0 0 0 0.12 0"/>
<feBlend mode="normal" in2="shape" result="effect1_innerShadow"/>
</filter>
</defs>
</svg>
