<svg width="28" height="28" viewBox="0 0 28 28" fill="none" xmlns="http://www.w3.org/2000/svg">
<g clip-path="url(#clip0)">
<g filter="url(#filter0_dii)">
<path fill-rule="evenodd" clip-rule="evenodd" d="M14 26C21.1797 26 27 20.1797 27 13C27 5.8203 21.1797 0 14 0C6.8203 0 1 5.8203 1 13C1 20.1797 6.8203 26 14 26Z" fill="url(#paint0_radial)"/>
</g>
<g filter="url(#filter1_d)">
<path fill-rule="evenodd" clip-rule="evenodd" d="M17.3281 5.18018C20.1789 7.27743 22.5389 11.8829 22.5389 15.419C22.5389 20.147 19.3467 21.3376 15.3767 21.3376C11.4488 21.3376 8.2567 19.4542 8.18945 14.8351C8.8399 15.0655 9.52891 15.1892 10.2422 15.1892C14.2122 15.1892 17.4305 11.3564 17.4305 6.62833C17.4305 6.13474 17.3954 5.65091 17.3281 5.18018V5.18018Z" fill="url(#paint1_linear)"/>
<path fill-rule="evenodd" clip-rule="evenodd" d="M22.5653 15.786C22.5653 19.9063 18.8872 23.2465 14.35 23.2465C9.81286 23.2465 6.13477 19.9063 6.13477 15.786C6.13477 7.75886 14.5049 1.11313 16.8351 -0.581421C15.9106 1.05776 15.3769 2.99118 15.3769 5.06163C15.3769 10.0028 18.4167 14.1634 22.5526 15.407C22.561 15.5402 22.5653 15.6667 22.5653 15.786Z" fill="url(#paint2_linear)"/>
<path fill-rule="evenodd" clip-rule="evenodd" d="M14.3818 13.0173C14.6306 14.9391 16.3094 16.4637 18.4257 16.6897C18.4468 16.8521 18.4576 17.0173 18.4576 17.1849C18.4576 19.5025 16.3886 21.3814 13.8365 21.3814C11.822 21.3814 10.1086 20.2108 9.47607 18.5778C12.1907 18.4545 14.3499 16.4167 14.3499 13.9209C14.3499 13.6074 14.3159 13.3012 14.2509 13.005C14.2947 13.0085 14.3383 13.0126 14.3818 13.0173Z" fill="url(#paint3_linear)"/>
</g>
</g>
<defs>
<filter id="filter0_dii" x="0" y="-1" width="28" height="29" filterUnits="userSpaceOnUse" color-interpolation-filters="sRGB">
<feFlood flood-opacity="0" result="BackgroundImageFix"/>
<feColorMatrix in="SourceAlpha" type="matrix" values="0 0 0 0 0 0 0 0 0 0 0 0 0 0 0 0 0 0 127 0"/>
<feOffset dy="1"/>
<feGaussianBlur stdDeviation="0.5"/>
<feColorMatrix type="matrix" values="0 0 0 0 0 0 0 0 0 0 0 0 0 0 0 0 0 0 0.2 0"/>
<feBlend mode="normal" in2="BackgroundImageFix" result="effect1_dropShadow"/>
<feBlend mode="normal" in="SourceGraphic" in2="effect1_dropShadow" result="shape"/>
<feColorMatrix in="SourceAlpha" type="matrix" values="0 0 0 0 0 0 0 0 0 0 0 0 0 0 0 0 0 0 127 0" result="hardAlpha"/>
<feOffset dy="-1"/>
<feGaussianBlur stdDeviation="0.5"/>
<feComposite in2="hardAlpha" operator="arithmetic" k2="-1" k3="1"/>
<feColorMatrix type="matrix" values="0 0 0 0 0 0 0 0 0 0 0 0 0 0 0 0 0 0 0.1 0"/>
<feBlend mode="normal" in2="shape" result="effect2_innerShadow"/>
<feColorMatrix in="SourceAlpha" type="matrix" values="0 0 0 0 0 0 0 0 0 0 0 0 0 0 0 0 0 0 127 0" result="hardAlpha"/>
<feOffset dy="1"/>
<feGaussianBlur stdDeviation="1"/>
<feComposite in2="hardAlpha" operator="arithmetic" k2="-1" k3="1"/>
<feColorMatrix type="matrix" values="0 0 0 0 1 0 0 0 0 1 0 0 0 0 1 0 0 0 0.5 0"/>
<feBlend mode="normal" in2="effect2_innerShadow" result="effect3_innerShadow"/>
</filter>
<filter id="filter1_d" x="3.13477" y="-1.58142" width="22.4305" height="29.8279" filterUnits="userSpaceOnUse" color-interpolation-filters="sRGB">
<feFlood flood-opacity="0" result="BackgroundImageFix"/>
<feColorMatrix in="SourceAlpha" type="matrix" values="0 0 0 0 0 0 0 0 0 0 0 0 0 0 0 0 0 0 127 0"/>
<feOffset dy="2"/>
<feGaussianBlur stdDeviation="1.5"/>
<feColorMatrix type="matrix" values="0 0 0 0 0 0 0 0 0 0 0 0 0 0 0 0 0 0 0.25 0"/>
<feBlend mode="normal" in2="BackgroundImageFix" result="effect1_dropShadow"/>
<feBlend mode="normal" in="SourceGraphic" in2="effect1_dropShadow" result="shape"/>
</filter>
<radialGradient id="paint0_radial" cx="0" cy="0" r="1" gradientUnits="userSpaceOnUse" gradientTransform="translate(12.8396 7.21178) rotate(90) scale(26)">
<stop stop-color="#FFF400"/>
<stop offset="1" stop-color="#FFD947"/>
</radialGradient>
<linearGradient id="paint1_linear" x1="12.1935" y1="9.6547" x2="12.1935" y2="16.7951" gradientUnits="userSpaceOnUse">
<stop stop-color="#B00000"/>
<stop offset="1" stop-color="#4D0100"/>
</linearGradient>
<linearGradient id="paint2_linear" x1="7.06237" y1="6.9424" x2="16.6075" y2="21.4769" gradientUnits="userSpaceOnUse">
<stop stop-color="#E06700"/>
<stop offset="1" stop-color="#C90200"/>
</linearGradient>
<linearGradient id="paint3_linear" x1="13.2201" y1="17.8865" x2="13.2201" y2="21.3814" gradientUnits="userSpaceOnUse">
<stop stop-color="#FFAA33"/>
<stop offset="1" stop-color="#FFC499"/>
</linearGradient>
<clipPath id="clip0">
<rect width="28" height="28" fill="white"/>
</clipPath>
</defs>
</svg>
