<?xml version="1.0" encoding="utf-8"?>
<!-- Generator: Adobe Illustrator 25.2.2, SVG Export Plug-In . SVG Version: 6.00 Build 0)  -->
<svg version="1.1" id="Layer_1" xmlns="http://www.w3.org/2000/svg" xmlns:xlink="http://www.w3.org/1999/xlink" x="0px" y="0px"
	 viewBox="0 0 77.2 77.2" style="enable-background:new 0 0 77.2 77.2;" xml:space="preserve">
<style type="text/css">
	.st0{fill:url(#SVGID_1_);}
	.st1{fill:#838485;}
	.st2{fill:#CCCFD8;}
	.st3{fill:none;stroke:#FFFFFF;stroke-linecap:round;}
</style>
<g>
	<g>
		
			<radialGradient id="SVGID_1_" cx="-607.7023" cy="435.9436" r="2.7569" gradientTransform="matrix(1.307445e-15 21.3522 21.3522 -1.307445e-15 -9273.2041 12997.6182)" gradientUnits="userSpaceOnUse">
			<stop  offset="0" style="stop-color:#1975E2"/>
			<stop  offset="1" style="stop-color:#202A8D"/>
		</radialGradient>
		<circle class="st0" cx="38.6" cy="38.6" r="38.6"/>
	</g>
	<path class="st1" d="M73.4,15.2c-0.2-0.5-0.8-0.6-1.2-0.2l-8,8c-0.9,0.9-2.3,0.9-3.1,0l-3.7-3.7c-0.9-0.9-0.9-2.3,0-3.1l8-8
		c0.4-0.4,0.2-1-0.3-1.2c-5.3-2.1-11.6-1-16,3.3c-2.2,2.2-3.6,5-4.2,8.1s0,6.2,1.3,9l-19,19c-5.5-2.7-12.4-1.8-17,2.8
		C6,53.4,4.9,59.7,7,65c0.2,0.5,0.8,0.6,1.2,0.2l8-8c0.9-0.9,2.3-0.9,3.1,0l3.7,3.7c0.9,0.9,0.9,2.3,0,3.1l-8,8
		c-0.4,0.4-0.2,1,0.3,1.2c5.3,2.1,11.6,1,16-3.3c2.2-2.2,3.6-5,4.2-8.1c0.5-3.1,0-6.2-1.3-9l19-19c5.5,2.7,12.4,1.8,17-2.8
		C74.4,26.8,75.5,20.5,73.4,15.2z"/>
	<path class="st2" d="M71.8,13.7c-0.2-0.5-0.8-0.6-1.2-0.2l-8,8c-0.9,0.9-2.3,0.9-3.1,0l-3.7-3.7c-0.9-0.9-0.9-2.3,0-3.1l8-8
		c0.4-0.4,0.2-1-0.3-1.2c-5.3-2.1-11.6-1-16,3.3c-2.2,2.2-3.6,5-4.2,8.1c-0.5,3.1,0,6.2,1.3,9l-19,19c-5.5-2.7-12.4-1.8-17,2.8
		c-4.3,4.3-5.4,10.6-3.3,16c0.2,0.5,0.8,0.6,1.2,0.2l8-8c0.9-0.9,2.3-0.9,3.1,0l3.7,3.7c0.9,0.9,0.9,2.3,0,3.1l-8,8
		c-0.4,0.4-0.2,1,0.3,1.2c5.3,2.1,11.6,1,16-3.3c2.2-2.2,3.6-5,4.2-8.1c0.5-3.1,0-6.2-1.3-9l19-19c5.5,2.7,12.4,1.8,17-2.8
		C72.8,25.3,73.9,19,71.8,13.7z"/>
	<g>
		<path class="st3" d="M57.3,23l0.5,0.5c1.5,1.5,3.9,1.5,5.4,0l5-5"/>
	</g>
	<g>
		<line class="st3" x1="34" y1="38.6" x2="46.5" y2="26.1"/>
	</g>
</g>
</svg>
