<svg width="23" height="19" viewBox="0 0 23 19" fill="none" xmlns="http://www.w3.org/2000/svg">
<path fill-rule="evenodd" clip-rule="evenodd" d="M2 7.62069C2 7.27789 2.25184 7 2.5625 7H4.43749C4.665 7 4.8701 7.15123 4.95717 7.38316C5.04412 7.6148 4.99623 7.88138 4.83585 8.0589L4.83482 8.06006L4.82766 8.06816C4.82074 8.07604 4.80966 8.08882 4.79499 8.10616C4.76563 8.14087 4.72215 8.1936 4.66926 8.2617C4.56296 8.39854 4.42133 8.59399 4.28052 8.82705C3.98669 9.31338 3.74999 9.87622 3.74999 10.3793C3.74999 10.7221 3.49815 11 3.18749 11C2.87684 11 2.625 10.7221 2.625 10.3793C2.625 9.55637 2.96751 8.78613 3.28352 8.24138H2.5625C2.25184 8.24138 2 7.96349 2 7.62069Z" fill="white"/>
<path fill-rule="evenodd" clip-rule="evenodd" d="M8 7.62069C8 7.27789 8.25184 7 8.5625 7H10.4375C10.665 7 10.8701 7.15123 10.9572 7.38316C11.0441 7.6148 10.9962 7.88138 10.8359 8.0589L10.8348 8.06006L10.8277 8.06816C10.8207 8.07604 10.8097 8.08882 10.795 8.10616C10.7656 8.14087 10.7221 8.1936 10.6693 8.2617C10.563 8.39854 10.4213 8.59399 10.2805 8.82705C9.98669 9.31338 9.74999 9.87622 9.74999 10.3793C9.74999 10.7221 9.49815 11 9.18749 11C8.87683 11 8.625 10.7221 8.625 10.3793C8.625 9.55637 8.96751 8.78613 9.28352 8.24138H8.5625C8.25184 8.24138 8 7.96349 8 7.62069Z" fill="white"/>
<path fill-rule="evenodd" clip-rule="evenodd" d="M14 7.62069C14 7.27789 14.2518 7 14.5625 7H16.4375C16.665 7 16.8701 7.15123 16.9572 7.38316C17.0441 7.6148 16.9962 7.88138 16.8359 8.0589L16.8348 8.06006L16.8277 8.06816C16.8207 8.07604 16.8097 8.08882 16.795 8.10616C16.7656 8.14087 16.7221 8.1936 16.6693 8.2617C16.563 8.39854 16.4213 8.59399 16.2805 8.82705C15.9867 9.31338 15.75 9.87622 15.75 10.3793C15.75 10.7221 15.4982 11 15.1875 11C14.8768 11 14.625 10.7221 14.625 10.3793C14.625 9.55637 14.9675 8.78613 15.2835 8.24138H14.5625C14.2518 8.24138 14 7.96349 14 7.62069Z" fill="white"/>
<path fill-rule="evenodd" clip-rule="evenodd" d="M17 3V4H18C18.5523 4 19 4.44771 19 5V10H21V6.91465C20.4174 6.70873 20 6.15311 20 5.5C20 4.67157 20.6716 4 21.5 4C22.3284 4 23 4.67157 23 5.5C23 6.15311 22.5826 6.70873 22 6.91465V10.5C22 10.7761 21.7761 11 21.5 11H19V13C19 13.5523 18.5523 14 18 14H17V16C17 17.6569 15.6569 19 14 19H5C3.34315 19 2 17.6569 2 16V14H1C0.447715 14 0 13.5523 0 13V5C0 4.44772 0.447715 4 1 4H2L2 3C2 1.34314 3.34315 0 5 0H14C15.6569 0 17 1.34315 17 3ZM18 5.5C18 5.22386 17.7761 5 17.5 5H13.5C13.2239 5 13 5.22386 13 5.5V12.5C13 12.7761 13.2239 13 13.5 13H17.5C17.7761 13 18 12.7761 18 12.5V5.5ZM1.5 5C1.22386 5 1 5.22386 1 5.5V12.5C1 12.7761 1.22386 13 1.5 13H5.5C5.77614 13 6 12.7761 6 12.5V5.5C6 5.22386 5.77614 5 5.5 5H1.5ZM7.5 5C7.22386 5 7 5.22386 7 5.5V12.5C7 12.7761 7.22386 13 7.5 13H11.5C11.7761 13 12 12.7761 12 12.5V5.5C12 5.22386 11.7761 5 11.5 5H7.5ZM5.5 15.5C5.22386 15.5 5 15.7239 5 16C5 16.2761 5.22386 16.5 5.5 16.5H13.5C13.7761 16.5 14 16.2761 14 16C14 15.7239 13.7761 15.5 13.5 15.5H5.5Z" fill="white"/>
</svg>
