<?xml version="1.0" encoding="utf-8"?>
<!-- Generator: Adobe Illustrator 25.2.2, SVG Export Plug-In . SVG Version: 6.00 Build 0)  -->
<svg version="1.1" id="Layer_1" xmlns="http://www.w3.org/2000/svg" xmlns:xlink="http://www.w3.org/1999/xlink" x="0px" y="0px"
	 viewBox="0 0 107 107" style="enable-background:new 0 0 107 107;" xml:space="preserve">
<style type="text/css">
	.st0{fill:#FFEF0D;}
	.st1{fill:#FC079B;}
</style>
<circle class="st0" cx="53.5" cy="53.5" r="53.5"/>
<g>
	<path class="st1" d="M28.3,68.8l-7.1-18.6h-0.1l0.2,18.6h-6.2V38.2h7.6l7,18.9h0.1l-0.1-18.9h6v30.6H28.3z"/>
	<path class="st1" d="M41.1,68.8V38.2h14.8v6.1h-8.2v6h7.5V56h-7.5v6.6h8.7v6.2H41.1z"/>
	<path class="st1" d="M86.1,68.8h-7.3L75,48.3h-0.1l-3.7,20.5h-7.3l-5.7-30.6h7l3.2,21.3h0.2l3.3-21.3h6.7L82,59.5h0.1l3.1-21.3h6.7
		L86.1,68.8z"/>
</g>
</svg>
