<svg width="24" height="24" viewBox="0 0 24 24" fill="none" xmlns="http://www.w3.org/2000/svg">
<path fill-rule="evenodd" clip-rule="evenodd" d="M4.11668 0.5H19.7415V1.27344H22.662C23.3148 1.27344 24.1356 1.9262 23.981 3.50059C23.8523 4.81095 23.1665 8.19981 21.7252 9.44248C20.8679 10.1816 19.7415 10.8531 18.2873 10.8531C18.9181 11.4879 18.6686 11.8978 18.5828 12.0317C18.497 12.1656 17.968 12.946 16.3574 11.5221C15.4117 12.6593 14.0061 13.3622 13.6586 13.4478C13.6587 14.5845 13.6586 20.363 13.6586 20.363H16.2665C16.7814 20.363 16.9982 20.7627 16.9982 21.1315V21.7876L18.0735 22.661V23.4872H6.02505V22.661L7.09851 21.7876V21.1114C7.09851 20.5737 7.51863 20.363 7.81239 20.363H10.5574V13.5633C10.5574 13.5633 9.54512 13.2551 8.75458 12.6606C7.96403 12.066 7.56303 11.5861 7.56303 11.5861C6.54061 12.4187 5.79544 12.6317 5.40748 12.0317C5.03843 11.4609 5.7125 10.8531 5.7125 10.8531C5.7125 10.8531 2.00579 10.6942 0.784575 6.90821C-0.43664 3.12227 -0.00345474 2.01492 0.552513 1.59248C0.974573 1.27178 1.0926 1.27203 1.6757 1.27327L1.79609 1.27344H4.11668V0.5ZM22.7794 2.53982C22.7794 5.90833 21.6655 9.79292 17.7673 9.50592C19.3597 6.70375 19.6881 2.53982 19.6881 2.53982H22.7794ZM6.11526 9.52093C2.14945 9.64373 1.31571 6.01128 1.19577 2.49871H4.17477C4.17477 2.49871 4.52286 6.71876 6.11526 9.52093Z" fill="white"/>
</svg>
