<?xml version="1.0" encoding="utf-8"?>
<!-- Generator: Adobe Illustrator 25.2.2, SVG Export Plug-In . SVG Version: 6.00 Build 0)  -->
<svg version="1.1" id="Layer_1" xmlns="http://www.w3.org/2000/svg" xmlns:xlink="http://www.w3.org/1999/xlink" x="0px" y="0px"
	 viewBox="0 0 22 21" style="enable-background:new 0 0 22 21;" xml:space="preserve">
<style type="text/css">
	.st0{fill:#FFFFFF;}
	.st1{fill-rule:evenodd;clip-rule:evenodd;fill:#FFFFFF;}
</style>
<path class="st0" d="M12,1h8c0.6,0,1,0.4,1,1v13c0,0.6-0.4,1-1,1h-6.3l-1.2,1H20c1.1,0,2-0.9,2-2V2c0-1.1-0.9-2-2-2h-8
	c-1.1,0-2,0.9-2,2v5.2l1,1.2V2C11,1.4,11.4,1,12,1z"/>
<path class="st0" d="M13.5,8.4c-0.1-1.5,2-2,2.5-0.5c0.5-1.5,2.4-1,2.5,0.5c0,0.7-0.5,1.2-1.3,1.9c-0.3,0.3-0.7,0.7-1.2,1.1
	c-0.4-0.4-0.8-0.7-1.1-1C14.1,9.7,13.5,9.2,13.5,8.4z"/>
<path class="st1" d="M7.9,7.8L1.8,13L7,19.1l6.1-5.2L7.9,7.8z M1.2,12.2c-0.4,0.4-0.5,1-0.1,1.4l5.2,6.1c0.4,0.4,1,0.5,1.4,0.1
	l6.1-5.2c0.4-0.4,0.5-1,0.1-1.4L8.7,7.2c-0.4-0.4-1-0.5-1.4-0.1L1.2,12.2z"/>
<path class="st0" d="M5.4,12.6C5.8,13,5.7,13.6,5.3,14c-0.4,0.4-1.1,0.3-1.4-0.1c-0.4-0.4-0.3-1.1,0.1-1.4C4.4,12.1,5,12.2,5.4,12.6
	z"/>
<path class="st0" d="M8.2,12.8c0.4,0.4,0.3,1.1-0.1,1.4c-0.4,0.4-1.1,0.3-1.4-0.1c-0.4-0.4-0.3-1.1,0.1-1.4
	C7.2,12.3,7.9,12.4,8.2,12.8z"/>
<path class="st0" d="M11,13c0.4,0.4,0.3,1.1-0.1,1.4c-0.4,0.4-1.1,0.3-1.4-0.1c-0.4-0.4-0.3-1.1,0.1-1.4C10,12.6,10.7,12.6,11,13z"
	/>
<path class="st0" d="M8,15.6C8.3,16,8.3,16.7,7.9,17c-0.4,0.4-1.1,0.3-1.4-0.1c-0.4-0.4-0.3-1.1,0.1-1.4C7,15.2,7.6,15.2,8,15.6z"/>
<path class="st0" d="M8.4,10c0.4,0.4,0.3,1.1-0.1,1.4c-0.4,0.4-1.1,0.3-1.4-0.1C6.6,10.9,6.6,10.2,7,9.9C7.5,9.5,8.1,9.6,8.4,10z"/>
</svg>
