<svg width="24" height="23" viewBox="0 0 24 23" fill="none" xmlns="http://www.w3.org/2000/svg">
<path d="M8.56832 9.20822C8.73103 9.736 8.43508 10.2957 7.90731 10.4585C7.37954 10.6212 6.81979 10.3252 6.65708 9.79744C6.49437 9.26967 6.79032 8.70992 7.31809 8.54721C7.84586 8.38451 8.40561 8.68045 8.56832 9.20822Z" fill="white"/>
<path d="M8.08408 11.0318C8.24679 11.5596 7.95084 12.1193 7.42307 12.282C6.8953 12.4448 6.33555 12.1488 6.17284 11.621C6.01013 11.0933 6.30608 10.5335 6.83385 10.3708C7.36162 10.2081 7.92137 10.504 8.08408 11.0318Z" fill="white"/>
<path d="M9.99531 10.4426C10.158 10.9704 9.86208 11.5301 9.33431 11.6928C8.80653 11.8555 8.24679 11.5596 8.08408 11.0318C7.92137 10.504 8.21731 9.9443 8.74509 9.78159C9.27286 9.61888 9.83261 9.91482 9.99531 10.4426Z" fill="white"/>
<path d="M8.02515 10.8407C8.02515 10.8407 8.37749 11.5112 8.66537 11.899C8.97417 12.3151 9.5598 12.879 9.5598 12.879L7.90463 13.3893C7.90463 13.3893 8.07109 12.5935 8.092 12.0758C8.1115 11.5932 8.02515 10.8407 8.02515 10.8407Z" fill="white"/>
<path d="M8.53961 10.4728C8.63723 10.7895 8.45966 11.1253 8.143 11.2229C7.82634 11.3206 7.49049 11.143 7.39286 10.8263C7.29524 10.5097 7.47281 10.1738 7.78947 10.0762C8.10613 9.97858 8.44198 10.1561 8.53961 10.4728Z" fill="white"/>
<path d="M4.08111 4.83615C4.16247 5.10004 4.0145 5.37991 3.75061 5.46126C3.48672 5.54262 3.20685 5.39465 3.1255 5.13076C3.04414 4.86687 3.19211 4.587 3.456 4.50565C3.71989 4.42429 3.99976 4.57226 4.08111 4.83615Z" fill="white"/>
<path d="M3.83899 5.74795C3.92035 6.01183 3.77238 6.29171 3.50849 6.37306C3.2446 6.45442 2.96473 6.30644 2.88338 6.04256C2.80202 5.77867 2.94999 5.4988 3.21388 5.41744C3.47777 5.33609 3.75764 5.48406 3.83899 5.74795Z" fill="white"/>
<path d="M4.79461 5.45334C4.87597 5.71722 4.72799 5.9971 4.46411 6.07845C4.20022 6.15981 3.92035 6.01183 3.83899 5.74795C3.75764 5.48406 3.90561 5.20419 4.1695 5.12283C4.43338 5.04148 4.71326 5.18945 4.79461 5.45334Z" fill="white"/>
<path d="M3.80953 5.65238C3.80953 5.65238 3.9857 5.98761 4.12964 6.18156C4.28404 6.3896 4.57686 6.67155 4.57686 6.67155L3.74927 6.92669C3.74927 6.92669 3.8325 6.52881 3.84296 6.26994C3.85271 6.02862 3.80953 5.65238 3.80953 5.65238Z" fill="white"/>
<path d="M4.06676 5.46844C4.11557 5.62677 4.02679 5.7947 3.86845 5.84351C3.71012 5.89232 3.5422 5.80354 3.49339 5.64521C3.44457 5.48688 3.53336 5.31895 3.69169 5.27014C3.85002 5.22133 4.01794 5.31011 4.06676 5.46844Z" fill="white"/>
<path d="M5.964 19.4292L1.25025 4.13928L9.85081 1.4878L11.2985 6.18359L11.7948 4.39903L10.6591 0.715377C10.5778 0.45149 10.2979 0.303519 10.034 0.384873L0.477828 3.33097C0.213942 3.41232 0.06597 3.6922 0.147324 3.95608L5.15569 20.2016C5.23704 20.4655 5.51691 20.6134 5.7808 20.5321L7.45146 20.017L7.76976 18.8725L5.964 19.4292Z" fill="white"/>
<path fill-rule="evenodd" clip-rule="evenodd" d="M13.9816 2.13392C13.7156 2.05993 13.4399 2.21563 13.3659 2.48168L8.81116 18.8601C8.73717 19.1262 8.89287 19.4018 9.15891 19.4758L18.7933 22.1551C19.0593 22.2291 19.335 22.0734 19.409 21.8074L23.9638 5.42889C24.0378 5.16284 23.8821 4.88719 23.616 4.8132L13.9816 2.13392ZM15.7026 5.15141C15.5663 5.36616 15.3225 5.4369 15.1036 5.37604C14.9487 5.33296 14.8314 5.2275 14.7633 5.10037C14.7631 5.18049 14.7648 5.27552 14.7716 5.36623C14.7892 5.60048 14.9023 5.91472 14.9023 5.91472L14.1316 5.70037C14.1316 5.70037 14.3687 5.48354 14.5046 5.29197C14.5514 5.22609 14.5995 5.15605 14.6416 5.0939C14.5245 5.15335 14.3805 5.17495 14.2365 5.13491C14.0181 5.07417 13.8413 4.8875 13.8398 4.6341C13.8349 3.77984 15.1306 3.59957 15.1306 3.59957C15.1306 3.59957 16.1332 4.47305 15.7026 5.15141ZM16.8128 13.9712C17.2505 14.0929 17.7382 13.9514 18.0108 13.5219C18.872 12.1652 16.8668 10.4182 16.8668 10.4182C16.8668 10.4182 14.2754 10.7788 14.2852 12.4873C14.2881 12.9941 14.6418 13.3674 15.0787 13.4889C15.3666 13.569 15.6546 13.5258 15.8889 13.4069C15.8046 13.5312 15.7084 13.6713 15.6149 13.803C15.3429 14.1862 14.8687 14.6198 14.8687 14.6198L16.4102 15.0485C16.4102 15.0485 16.184 14.4201 16.1488 13.9515C16.1353 13.7701 16.1317 13.5801 16.1323 13.4198C16.2685 13.6741 16.503 13.885 16.8128 13.9712ZM18.8297 20.0333C18.6933 20.2481 18.4495 20.3188 18.2307 20.258C18.0757 20.2149 17.9585 20.1094 17.8904 19.9823C17.8901 20.0624 17.8919 20.1574 17.8987 20.2481C17.9162 20.4824 18.0294 20.7966 18.0294 20.7966L17.2586 20.5823C17.2586 20.5823 17.4957 20.3655 17.6317 20.1739C17.6784 20.108 17.7266 20.038 17.7687 19.9758C17.6515 20.0353 17.5075 20.0569 17.3636 20.0168C17.1452 19.9561 16.9683 19.7694 16.9669 19.516C16.962 18.6618 18.2576 18.4815 18.2576 18.4815C18.2576 18.4815 19.2603 19.355 18.8297 20.0333Z" fill="white"/>
</svg>
