<svg width="24" height="16" viewBox="0 0 24 16" fill="none" xmlns="http://www.w3.org/2000/svg">
<path fill-rule="evenodd" clip-rule="evenodd" d="M10 11V5H13V11H10ZM11.0981 8.49671C11.2368 8.4974 11.3594 8.42451 11.4317 8.31324C11.4153 8.37799 11.397 8.44312 11.3781 8.4981C11.3082 8.70116 11.1494 8.99654 11.1494 8.99654L11.8422 9C11.8422 9 11.6862 8.70305 11.6181 8.4993C11.5997 8.44414 11.582 8.37883 11.5662 8.31392C11.6375 8.4259 11.7594 8.50001 11.8981 8.5007C12.119 8.50181 12.2989 8.31632 12.3 8.0864C12.3011 7.85648 12.1228 7.6692 11.9019 7.66809C11.8719 7.66794 11.8427 7.67124 11.8145 7.67762C11.8695 7.60669 11.9026 7.51656 11.9031 7.41831C11.9041 7.18839 11.7259 7.00111 11.505 7C11.2841 6.9989 11.1041 7.18439 11.1031 7.41431C11.1026 7.51256 11.1349 7.60302 11.1893 7.6745C11.1612 7.66783 11.132 7.66424 11.1019 7.66409C10.881 7.66299 10.7011 7.84848 10.7 8.0784C10.699 8.30832 10.8772 8.4956 11.0981 8.49671Z" fill="white"/>
<path d="M14 9.28422L14.985 6.97771L14 6.55709V9.28422Z" fill="white"/>
<path d="M9 6.58699V9.216L8.05047 6.99248L9 6.58699Z" fill="white"/>
<path fill-rule="evenodd" clip-rule="evenodd" d="M2 8C2 4.68629 4.68629 2 8 2H16C19.3137 2 22 4.68629 22 8C22 11.3137 19.3137 14 16 14H8C4.68629 14 2 11.3137 2 8ZM9 5.49963L7.01398 6.34773C6.86161 6.4128 6.79084 6.58907 6.85591 6.74145L9.02197 11.8137C9.02491 11.8206 9.02807 11.8273 9.03145 11.8339C9.08064 11.9324 9.18242 12 9.3 12H13.7C13.7154 12 13.7305 11.9988 13.7452 11.9966C13.8564 11.9912 13.9601 11.9239 14.0068 11.8147L16.1795 6.72668C16.2446 6.57431 16.1738 6.39804 16.0215 6.33297L14 5.46973V4.3C14 4.13431 13.8657 4 13.7 4H9.3C9.13431 4 9 4.13431 9 4.3V5.49963Z" fill="white"/>
<path fill-rule="evenodd" clip-rule="evenodd" d="M0 8C0 3.58172 3.58172 0 8 0H16C20.4183 0 24 3.58172 24 8C24 12.4183 20.4183 16 16 16H8C3.58172 16 0 12.4183 0 8ZM8 1H16C19.866 1 23 4.13401 23 8C23 11.866 19.866 15 16 15H8C4.13401 15 1 11.866 1 8C1 4.13401 4.13401 1 8 1Z" fill="white"/>
</svg>
