<?xml version="1.0" encoding="utf-8"?>
<!-- Generator: Adobe Illustrator 25.2.2, SVG Export Plug-In . SVG Version: 6.00 Build 0)  -->
<svg version="1.1" id="Layer_1" xmlns="http://www.w3.org/2000/svg" xmlns:xlink="http://www.w3.org/1999/xlink" x="0px" y="0px"
	 viewBox="0 0 84 86.5" style="enable-background:new 0 0 84 86.5;" xml:space="preserve">
<style type="text/css">
	.st0{fill:url(#SVGID_1_);}
	.st1{fill:#6B6B6B;}
	.st2{fill:#424242;}
	.st3{fill:#F2F0F0;}
</style>
<g>
	<g>
		
			<radialGradient id="SVGID_1_" cx="-608.5292" cy="444.3488" r="2.9996" gradientTransform="matrix(1.307445e-15 21.3522 21.3522 -1.307445e-15 -9449.5771 13018.46)" gradientUnits="userSpaceOnUse">
			<stop  offset="0" style="stop-color:#F4BC2C"/>
			<stop  offset="1" style="stop-color:#F0A214"/>
		</radialGradient>
		<circle class="st0" cx="42" cy="43.3" r="42"/>
	</g>
	<path class="st1" d="M18,0H66c0.9,0,1.6,0.7,1.6,1.6v83.3c0,0.9-0.7,1.6-1.6,1.6H18c-0.9,0-1.6-0.7-1.6-1.6V1.6
		C16.4,0.7,17.1,0,18,0z"/>
	<path class="st2" d="M42,78.5L42,78.5c1.6,0,3,1.3,3,3v0c0,1.6-1.3,3-3,3h0c-1.6,0-3-1.3-3-3v0C39,79.9,40.4,78.5,42,78.5z"/>
	<path class="st2" d="M35.3,2h13.4c0.9,0,1.7,0.7,1.7,1.7l0,0c0,0.9-0.7,1.7-1.7,1.7H35.3c-0.9,0-1.7-0.7-1.7-1.7l0,0
		C33.6,2.8,34.4,2,35.3,2z"/>
	<path class="st3" d="M22.5,8.3h38.9c0.9,0,1.6,0.7,1.6,1.6v64.9c0,0.9-0.7,1.6-1.6,1.6H22.5c-0.9,0-1.6-0.7-1.6-1.6V9.9
		C20.9,9,21.6,8.3,22.5,8.3z"/>
</g>
</svg>
