<?xml version="1.0" encoding="utf-8"?>
<!-- Generator: Adobe Illustrator 25.2.2, SVG Export Plug-In . SVG Version: 6.00 Build 0)  -->
<svg version="1.1" id="Layer_1" xmlns="http://www.w3.org/2000/svg" xmlns:xlink="http://www.w3.org/1999/xlink" x="0px" y="0px"
	 viewBox="0 0 28 27" style="enable-background:new 0 0 28 27;" xml:space="preserve">
<style type="text/css">
	.st0{fill-rule:evenodd;clip-rule:evenodd;fill:url(#SVGID_1_);}
	.st1{fill:url(#SVGID_2_);stroke:url(#SVGID_3_);}
</style>
<g>
	
		<radialGradient id="SVGID_1_" cx="-653.7692" cy="423.6923" r="1" gradientTransform="matrix(1.592041e-15 26 26 -1.592041e-15 -11003.1602 17005.2109)" gradientUnits="userSpaceOnUse">
		<stop  offset="0" style="stop-color:#FFF400"/>
		<stop  offset="1" style="stop-color:#FFD947"/>
	</radialGradient>
	<path class="st0" d="M14,26c7.2,0,13-5.8,13-13S21.2,0,14,0S1,5.8,1,13S6.8,26,14,26z"/>
</g>
<linearGradient id="SVGID_2_" gradientUnits="userSpaceOnUse" x1="14.0639" y1="23.936" x2="14.0639" y2="5.936" gradientTransform="matrix(1 0 0 -1 0 28)">
	<stop  offset="0" style="stop-color:#E8188B"/>
	<stop  offset="1" style="stop-color:#C21373"/>
</linearGradient>
<linearGradient id="SVGID_3_" gradientUnits="userSpaceOnUse" x1="14.0639" y1="23.936" x2="14.0639" y2="5.9361" gradientTransform="matrix(1 0 0 -1 0 28)">
	<stop  offset="0" style="stop-color:#FE54A1"/>
	<stop  offset="1" style="stop-color:#8D0E54"/>
</linearGradient>
<path class="st1" d="M22.2,13.1L22.2,13.1l-8.1,8.2L6,13.1C4.1,11.2,4.1,8,6,6c1.9-2,5.1-2,7,0c0.3,0.3,0.5,0.6,0.7,0.9l0.4,0.6
	l0.4-0.6c0.2-0.3,0.4-0.5,0.6-0.7c1.9-2,5.1-2,7,0C24,8.1,24,11.2,22.2,13.1z"/>
</svg>
