<?xml version="1.0" encoding="utf-8"?>
<!-- Generator: Adobe Illustrator 25.2.2, SVG Export Plug-In . SVG Version: 6.00 Build 0)  -->
<svg version="1.1" id="Layer_1" xmlns="http://www.w3.org/2000/svg" xmlns:xlink="http://www.w3.org/1999/xlink" x="0px" y="0px"
	 viewBox="0 0 51.8 51.8" style="enable-background:new 0 0 51.8 51.8;" xml:space="preserve">
<style type="text/css">
	.st0{fill-rule:evenodd;clip-rule:evenodd;fill:url(#SVGID_1_);}
	.st1{fill-rule:evenodd;clip-rule:evenodd;fill:url(#SVGID_2_);}
	.st2{fill-rule:evenodd;clip-rule:evenodd;fill:#005B84;}
	.st3{fill-rule:evenodd;clip-rule:evenodd;fill:url(#SVGID_3_);}
</style>
<g>
	
		<radialGradient id="SVGID_1_" cx="-615.0141" cy="409.6484" r="1.9939" gradientTransform="matrix(1.592041e-15 26 26 -1.592041e-15 -10627.251 16004.7471)" gradientUnits="userSpaceOnUse">
		<stop  offset="0" style="stop-color:#FFF400"/>
		<stop  offset="1" style="stop-color:#FFD947"/>
	</radialGradient>
	<path class="st0" d="M25.9,51.8c14.3,0,25.9-11.6,25.9-25.9S40.2,0,25.9,0C11.6,0,0,11.6,0,25.9S11.6,51.8,25.9,51.8z"/>
	
		<radialGradient id="SVGID_2_" cx="-614.9257" cy="409.7847" r="1.9939" gradientTransform="matrix(1.583285e-15 25.857 25.857 -1.583285e-15 -10572.1963 15914.7969)" gradientUnits="userSpaceOnUse">
		<stop  offset="0" style="stop-color:#2D8BE3"/>
		<stop  offset="1" style="stop-color:#204FA1"/>
	</radialGradient>
	<path class="st1" d="M25.9,51.8c14.3,0,25.9-11.6,25.9-25.9S40.2,0,25.9,0C11.6,0,0,11.6,0,25.9S11.6,51.8,25.9,51.8z"/>
</g>
<g>
	<path class="st2" d="M35.5,21.5v-6.3c0-4.9-4.6-8.8-9.6-8.8c-5.1,0-9.6,4-9.6,8.8v6.3h-4.1v20.2h27.5V21.5H35.5z M27.4,32.4v3.4
		h-3.1v-3.4c-0.9-0.5-1.5-1.4-1.5-2.5c0-1.6,1.4-2.9,3.1-2.9c1.7,0,3.1,1.3,3.1,2.9C29,31,28.4,31.9,27.4,32.4z M20.4,15.2v6.3h11
		v-6.3c0-3.2-2.1-5.5-5.5-5.5C22.5,9.7,20.4,11.9,20.4,15.2z"/>
	
		<linearGradient id="SVGID_3_" gradientUnits="userSpaceOnUse" x1="25.9208" y1="-9.2496" x2="25.9206" y2="-70.1376" gradientTransform="matrix(1 0 0 -1 0 2)">
		<stop  offset="0" style="stop-color:#FFEA00"/>
		<stop  offset="1" style="stop-color:#F3BB00"/>
	</linearGradient>
	<path class="st3" d="M35.5,21.5v-6.3c0-4.9-4.6-8.8-9.6-8.8c-5.1,0-9.6,4-9.6,8.8v6.3h-4.1v20.2h27.5V21.5H35.5z M27.4,32.4v3.4
		h-3.1v-3.4c-0.9-0.5-1.5-1.4-1.5-2.5c0-1.6,1.4-2.9,3.1-2.9c1.7,0,3.1,1.3,3.1,2.9C29,31,28.4,31.9,27.4,32.4z M20.4,15.2v6.3h11
		v-6.3c0-3.2-2.1-5.5-5.5-5.5C22.5,9.7,20.4,11.9,20.4,15.2z"/>
</g>
</svg>
