<?xml version="1.0" encoding="utf-8"?>
<!-- Generator: Adobe Illustrator 25.2.2, SVG Export Plug-In . SVG Version: 6.00 Build 0)  -->
<svg version="1.1" id="Layer_1" xmlns="http://www.w3.org/2000/svg" xmlns:xlink="http://www.w3.org/1999/xlink" x="0px" y="0px"
	 viewBox="0 0 80 80" style="enable-background:new 0 0 80 80;" xml:space="preserve">
<style type="text/css">
	.st0{fill:#FFFFFF;}
	.st1{fill:#0097DD;}
</style>
<circle class="st0" cx="40" cy="40" r="40"/>
<path class="st1" d="M46.1,24.2C46.1,24.2,46.1,24.2,46.1,24.2l3-10.8c-4.1-1.5-10.6,2-13.7,2c-3.1,0-5.1-2-5.1-2s3,10.5,3.3,10.7
	c0,0,0.1,0,0.1,0.1c-8.7,3.3-16.3,12.8-16.3,22c0,11.4,10.1,20.6,22.6,20.6s22.6-9.2,22.6-20.6C62.6,37.1,54.7,27.5,46.1,24.2z
	 M48.3,56c-1.5,1.2-3.3,1.9-5.6,2.2v2.6h-4.8v-2.6c-2.8-0.4-5.1-1.5-6.9-3.5c-2.3-2.4-3.4-5.8-3.4-10c0-4.3,1.1-7.7,3.4-10.1
	c1.8-1.9,4.1-3,6.9-3.4v-3h4.8v2.9c2.1,0.3,3.8,0.9,5.2,1.9c1.9,1.4,3.2,3.5,4.1,6.3l-6.8,1.2c-0.2-1.4-0.8-2.4-1.6-3.1
	c-0.8-0.7-1.9-1-3.2-1c-1.7,0-3.1,0.6-4.1,1.8c-1,1.2-1.5,3.2-1.5,6c0,3.1,0.5,5.3,1.6,6.6c1,1.3,2.4,1.9,4.2,1.9
	c1.3,0,2.4-0.4,3.2-1.1c0.8-0.7,1.4-2,1.8-3.9l6.8,1.2C51.6,52,50.3,54.4,48.3,56z"/>
</svg>
