<svg width="80" height="80" viewBox="0 0 80 80" fill="none" xmlns="http://www.w3.org/2000/svg">
<path d="M40 0C32.0888 0 24.3552 2.34596 17.7772 6.74121C11.1992 11.1365 6.07234 17.3836 3.04484 24.6927C0.0173314 32.0017 -0.774802 40.0444 0.768606 47.8036C2.31201 55.5628 6.12164 62.6902 11.7157 68.2842C17.3098 73.8783 24.4372 77.688 32.1964 79.2314C39.9556 80.7748 47.9983 79.9827 55.3073 76.9552C62.6164 73.9277 68.8635 68.8008 73.2588 62.2228C77.654 55.6448 80 47.9112 80 40C80 34.7471 78.9654 29.5457 76.9552 24.6927C74.945 19.8396 71.9986 15.4301 68.2843 11.7157C64.5699 8.00138 60.1604 5.05501 55.3073 3.04482C50.4543 1.03463 45.2529 0 40 0ZM27.2322 28.4197C27.3123 25.0875 28.6922 21.9188 31.0772 19.5905C33.4623 17.2621 36.6632 15.9587 39.9963 15.9587C43.3294 15.9587 46.5304 17.2621 48.9154 19.5905C51.3004 21.9188 52.6804 25.0875 52.7605 28.4197V31.4807C52.6804 34.8129 51.3004 37.9816 48.9154 40.3099C46.5304 42.6383 43.3294 43.9417 39.9963 43.9417C36.6632 43.9417 33.4623 42.6383 31.0772 40.3099C28.6922 37.9816 27.3123 34.8129 27.2322 31.4807V28.4197ZM55.6076 64.3408H24.3924C20.2619 64.3408 18.3884 58.3367 20.7782 54.0955C22.8934 50.1708 26.25 47.0581 30.3227 45.2443C33.1584 47.2317 36.5372 48.2978 40 48.2978C43.4628 48.2978 46.8416 47.2317 49.6773 45.2443C53.7501 47.0581 57.1066 50.1708 59.2218 54.0955C61.6117 58.3367 59.7382 64.3408 55.6076 64.3408Z" fill="white"/>
</svg>
