<?xml version="1.0" encoding="utf-8"?>
<!-- Generator: Adobe Illustrator 25.2.2, SVG Export Plug-In . SVG Version: 6.00 Build 0)  -->
<svg version="1.1" id="Layer_1" xmlns="http://www.w3.org/2000/svg" xmlns:xlink="http://www.w3.org/1999/xlink" x="0px" y="0px"
	 viewBox="0 0 80 80" style="enable-background:new 0 0 80 80;" xml:space="preserve">
<style type="text/css">
	.st0{fill:#FFFFFF;}
	.st1{fill:#0097DD;}
</style>
<circle class="st0" cx="40" cy="39.5" r="39.5"/>
<path class="st1" d="M19.9,52.4l6.7,6.5c0,0,2.7,1.8,6.6,1c3.9-0.8,9.6-2.7,17.5-9.9c7.8-7.2,9.9-18.3,9.9-18.3s0.5-3.6-0.9-5.3
	c-1.4-1.7-6.8-6.8-6.8-6.8s-2.8-1.6-4.9,0.4c-2.1,2-6.6,6.5-6.6,6.5s-1.2,3.2,0.4,4.8s4.3,4.2,4.3,4.2s-0.7,6.2-10,10.3L31.7,41
	c0,0-2.7-1.4-4.8-0.2l-7.1,7.4C19.9,48.2,18.4,49.6,19.9,52.4z"/>
</svg>
