<svg width="80" height="80" viewBox="0 0 80 80" fill="none" xmlns="http://www.w3.org/2000/svg">
<path d="M22.7399 58.9929H19.9886V19.251H49.9794V58.9929H47.2282V27.0622C46.0157 26.7643 44.9135 26.1264 44.0511 25.2235C43.1887 24.3206 42.602 23.1903 42.36 21.9654H27.608C27.3669 23.1906 26.7805 24.3214 25.918 25.2244C25.0555 26.1275 23.9528 26.7651 22.7399 27.0622V58.9929Z" fill="white"/>
<path d="M36.4364 32.7596C36.0193 33.0717 35.5128 33.2414 34.9918 33.2434C34.4699 33.2418 33.9623 33.0724 33.5439 32.7603C33.1256 32.4482 32.8186 32.0099 32.6684 31.5101C32.6061 31.2867 32.5738 31.056 32.5725 30.8241C32.5725 30.1824 32.8274 29.5671 33.2811 29.1134C33.7348 28.6597 34.3502 28.4048 34.9918 28.4048C35.6335 28.4048 36.2488 28.6597 36.7025 29.1134C37.1562 29.5671 37.4111 30.1824 37.4111 30.8241C37.4074 31.0563 37.3726 31.287 37.3079 31.5101C37.159 32.0093 36.8535 32.4474 36.4364 32.7596Z" fill="white"/>
<path fill-rule="evenodd" clip-rule="evenodd" d="M34.9919 38.0829C32.9728 38.0771 30.9974 38.6706 29.3158 39.7882C27.6342 40.9059 26.3221 42.4975 25.5457 44.3614C24.7693 46.2253 24.5635 48.2776 24.9544 50.2586C25.3453 52.2395 26.3152 54.0599 27.7414 55.4892C29.1676 56.9185 30.9859 57.8924 32.966 58.2876C34.946 58.6827 36.9989 58.4814 38.8644 57.7091C40.73 56.9367 42.3244 55.6281 43.4458 53.949C44.5671 52.2698 45.1649 50.2957 45.1634 48.2765C45.1615 45.5774 44.0899 42.9891 42.1835 41.0785C40.277 39.1679 37.691 38.0907 34.9919 38.0829ZM42.095 49.2649H40.4797C40.4368 49.8031 40.3455 50.3363 40.2068 50.8581C39.9571 51.5093 39.5979 52.113 39.1446 52.6431C39.1183 52.684 39.0837 52.719 39.0431 52.7457C39.0024 52.7724 38.9566 52.7902 38.9086 52.798C38.86 52.8031 38.8108 52.7971 38.7648 52.7804C38.7189 52.7638 38.6772 52.7371 38.643 52.7021L37.6547 51.7211C37.6032 51.6681 37.5708 51.5994 37.5628 51.5259C37.5548 51.4524 37.5715 51.3783 37.6104 51.3154C37.9456 50.9337 38.2126 50.497 38.3996 50.0246C38.551 49.4819 38.6279 48.9211 38.6283 48.3577C38.6487 47.7608 38.522 47.1681 38.2595 46.6317C38.1627 46.4571 38.0279 46.3064 37.8652 46.1907C37.7024 46.0751 37.5158 45.9974 37.319 45.9635C37.1223 45.9295 36.9204 45.9401 36.7283 45.9944C36.5362 46.0488 36.3587 46.1456 36.209 46.2776C35.9572 46.6073 35.813 47.0065 35.7959 47.4209L35.6484 49.1838C35.6111 50.0612 35.3046 50.9059 34.7706 51.6031C34.4985 51.8952 34.1645 52.1229 33.7932 52.2696C33.4219 52.4164 33.0226 52.4784 32.6242 52.4513C32.1133 52.4665 31.6065 52.355 31.149 52.1268C30.7315 51.9112 30.3664 51.6065 30.0795 51.2343C29.7813 50.8383 29.5588 50.3907 29.4231 49.914C29.3668 49.7003 29.3224 49.4836 29.2903 49.2649H27.8815V47.2955H29.2755C29.315 46.8571 29.3915 46.4228 29.5042 45.9973C29.6706 45.488 29.9198 45.0095 30.2418 44.5812C30.2645 44.538 30.297 44.5009 30.3367 44.4727C30.3764 44.4445 30.4223 44.426 30.4704 44.4189C30.5208 44.4105 30.5725 44.4142 30.6212 44.4296C30.6699 44.445 30.7143 44.4716 30.7507 44.5074L31.6875 45.4294C31.7369 45.477 31.77 45.5391 31.7819 45.6067C31.7938 45.6743 31.784 45.7439 31.7539 45.8056C31.5294 46.1156 31.3551 46.4591 31.2375 46.8235C31.1127 47.3052 31.0507 47.801 31.0531 48.2987C31.0165 48.8201 31.154 49.339 31.4441 49.7738C31.5619 49.9316 31.7158 50.0588 31.8929 50.1447C32.07 50.2307 32.2652 50.273 32.462 50.268C32.6244 50.288 32.7893 50.2719 32.9448 50.2209C33.1004 50.1699 33.2427 50.0853 33.3618 49.973C33.6022 49.6251 33.7379 49.2155 33.7528 48.7928L33.8855 47.2513C33.9157 46.3039 34.2492 45.3912 34.837 44.6475C35.1159 44.3435 35.4596 44.1062 35.8426 43.9529C36.2256 43.7997 36.6382 43.7346 37.0498 43.7624C37.5795 43.7513 38.1037 43.8704 38.5767 44.1091C39.009 44.3441 39.3842 44.6715 39.6757 45.068C39.9883 45.5142 40.2159 46.0143 40.3469 46.5432C40.4059 46.794 40.4502 47.0521 40.487 47.2808H42.1319L42.095 49.2649Z" fill="white"/>
<path fill-rule="evenodd" clip-rule="evenodd" d="M17.7772 6.74121C24.3552 2.34596 32.0888 0 40 0C45.2529 0 50.4543 1.03463 55.3073 3.04482C60.1604 5.05501 64.5699 8.00138 68.2843 11.7157C71.9986 15.4301 74.945 19.8396 76.9552 24.6927C78.9654 29.5457 80 34.7471 80 40C80 47.9112 77.654 55.6448 73.2588 62.2228C68.8635 68.8008 62.6164 73.9277 55.3073 76.9552C47.9983 79.9827 39.9556 80.7748 32.1964 79.2314C24.4372 77.688 17.3098 73.8783 11.7157 68.2843C6.12164 62.6902 2.31202 55.5628 0.768607 47.8036C-0.774802 40.0444 0.0173315 32.0017 3.04484 24.6927C6.07234 17.3836 11.1992 11.1365 17.7772 6.74121ZM68.2651 58.8722C68.309 58.7302 68.3533 58.5871 68.3533 58.44V56.4484C68.1207 55.1002 67.4198 53.8772 66.3742 52.9948C65.3285 52.1124 64.0051 51.6272 62.6369 51.6245L53.8742 51.4328V58.8088H51.9196V17.3188H18.0269V58.8383H16.2272C16.2209 58.1517 16.2133 57.4658 16.2058 56.7801C16.187 55.0716 16.1682 53.3647 16.1682 51.6541C15.4059 51.6541 14.651 51.8042 13.9467 52.0959C13.2425 52.3877 12.6025 52.8152 12.0635 53.3543C11.5245 53.8933 11.0969 54.5332 10.8052 55.2375C10.5134 55.9418 10.3633 56.6966 10.3633 57.459C10.3633 58.2213 10.5134 58.9761 10.8052 59.6804C11.0969 60.3847 11.5245 61.0246 12.0635 61.5636C12.6025 62.1027 13.2425 62.5303 13.9467 62.822C14.651 63.1137 15.4059 63.2639 16.1682 63.2639H62.6369C63.9028 63.2624 65.1334 62.8472 66.1414 62.0816C67.1494 61.3159 67.8796 60.2417 68.2205 59.0227C68.234 58.9726 68.2495 58.9224 68.2651 58.8722ZM65.248 39.2476L68.3533 42.3456V42.3161C68.7664 42.707 69.1278 43.0905 69.5113 43.5036L72.3142 40.7007L63.2713 31.6577L60.461 34.4606L54.2209 40.7007L57.0238 43.5036L61.2871 39.2476C61.2207 43.0168 61.1765 50.7247 61.1765 50.7247H65.248V39.2476Z" fill="white"/>
</svg>
