<svg width="80" height="80" viewBox="0 0 80 80" fill="none" xmlns="http://www.w3.org/2000/svg">
<path d="M40 0C32.0888 0 24.3552 2.34596 17.7772 6.74121C11.1992 11.1365 6.07234 17.3836 3.04484 24.6927C0.0173314 32.0017 -0.774802 40.0444 0.768606 47.8036C2.31201 55.5628 6.12164 62.6902 11.7157 68.2842C17.3098 73.8783 24.4372 77.688 32.1964 79.2314C39.9556 80.7748 47.9983 79.9827 55.3073 76.9552C62.6164 73.9277 68.8635 68.8008 73.2588 62.2228C77.654 55.6448 80 47.9112 80 40C80 34.7471 78.9654 29.5457 76.9552 24.6927C74.945 19.8396 71.9986 15.4301 68.2843 11.7157C64.5699 8.00138 60.1604 5.05501 55.3073 3.04482C50.4543 1.03463 45.2529 0 40 0ZM67.1363 24.5104L53.0039 29.8211L64.4219 20.8224L67.1363 24.5104ZM50.6731 10.9312L55.1945 13.4022L47.8186 24.1047L50.6731 10.9312ZM12.3179 53.4095C11.225 51.6898 10.8597 49.6065 11.3023 47.6176C11.7449 45.6286 12.9592 43.8968 14.6782 42.8029L16.7951 41.4752L25.0341 54.4274L22.9172 55.7772C21.1966 56.8695 19.1127 57.2336 17.1236 56.7896C15.1346 56.3456 13.4033 55.1298 12.3105 53.4095H12.3179ZM30.9644 67.0551C30.4997 67.3428 28.4345 68.6631 28.0878 68.8844C27.2395 69.4154 26.7159 68.7073 26.3323 67.7411C25.6758 66.0741 22.6443 59.5759 22.6443 59.5759L27.1658 56.6992C27.1658 56.6992 30.7874 64.4735 31.1857 65.4176C31.584 66.3618 31.4144 66.7601 30.957 67.0551H30.9644ZM53.594 47.5751C40.8704 46.0483 37.9052 47.317 29.4745 51.6098L27.2174 53.0407L18.9784 40.0737L21.1912 38.6428C28.7 32.8305 31.1046 30.6841 35.1319 18.5137C35.8252 16.4263 37.2488 15.733 38.2667 17.341L55.969 45.2296C57.009 46.8302 55.7772 47.8333 53.594 47.5751ZM65.9266 40.5384L55.556 35.1171L68.8918 36.5923L65.9266 40.5384Z" fill="white"/>
</svg>
