<svg width="80" height="80" viewBox="0 0 80 80" fill="none" xmlns="http://www.w3.org/2000/svg">
<path d="M40 0C32.0888 0 24.3552 2.34596 17.7772 6.74121C11.1992 11.1365 6.07234 17.3836 3.04484 24.6927C0.0173314 32.0017 -0.774802 40.0444 0.768606 47.8036C2.31201 55.5628 6.12164 62.6902 11.7157 68.2842C17.3098 73.8783 24.4372 77.688 32.1964 79.2314C39.9556 80.7748 47.9983 79.9827 55.3073 76.9552C62.6164 73.9277 68.8635 68.8008 73.2588 62.2228C77.654 55.6448 80 47.9112 80 40C80 34.7471 78.9654 29.5457 76.9552 24.6927C74.945 19.8396 71.9986 15.4301 68.2843 11.7157C64.5699 8.00138 60.1604 5.05501 55.3073 3.04482C50.4543 1.03463 45.2529 0 40 0ZM17.872 17.872L19.9226 15.8215L27.4608 20.3872L28.4861 24.9308L36.8283 33.3616C35.899 34.2541 34.6672 35.4416 33.2362 36.8062L24.9309 28.4492L20.3873 27.4608L15.8436 19.952L17.872 17.872ZM62.4599 62.4599C61.9215 62.9987 61.2822 63.4261 60.5785 63.7178C59.8748 64.0094 59.1206 64.1595 58.3588 64.1595C57.5971 64.1595 56.8429 64.0094 56.1392 63.7178C55.4355 63.4261 54.7962 62.9987 54.2578 62.4599L41.9768 50.2157L50.1789 42.021L62.4599 54.2578C62.9987 54.7962 63.4262 55.4355 63.7178 56.1392C64.0094 56.8429 64.1595 57.5971 64.1595 58.3588C64.1595 59.1205 64.0094 59.8748 63.7178 60.5785C63.4262 61.2822 62.9987 61.9215 62.4599 62.4599ZM60.2471 34.7704C55.6519 38.9674 50.0387 36.312 47.2063 38.8051L24.1785 63.699C24.0998 63.7974 24.0113 63.8933 23.913 63.9867C22.9607 64.9175 21.682 65.4386 20.3504 65.4386C19.0188 65.4386 17.74 64.9175 16.7878 63.9867C15.865 63.0351 15.3546 61.7581 15.367 60.4326C15.3794 59.1071 15.9137 57.8399 16.8542 56.9058L16.9869 56.7804L40.8704 33.8632C41.7186 33.0149 42.412 30.9865 42.412 28.8844C42.2116 26.7329 42.4808 24.5635 43.2012 22.5263C44.5731 18.2925 49.9723 15.224 53.1366 14.6045C53.4759 14.5381 53.7267 14.5086 53.9406 14.7077L55.0544 15.5781C55.1723 15.6985 55.2453 15.8557 55.2614 16.0235C55.2775 16.1912 55.2357 16.3594 55.1429 16.5001L50.5624 22.7254C50.5081 22.7973 50.4689 22.8795 50.4474 22.967C50.4258 23.0545 50.4223 23.1455 50.437 23.2344L50.6509 24.8423C50.6721 25.0194 50.7622 25.1811 50.9017 25.2923L54.3316 28.1984C54.4522 28.2924 54.5992 28.3465 54.752 28.3533L56.5296 28.1984C56.6441 28.2029 56.7579 28.179 56.8608 28.1288C56.9638 28.0786 57.0527 28.0037 57.1197 27.9107L62.0173 21.56C62.0764 21.4816 62.1506 21.4157 62.2354 21.3663C62.3203 21.3169 62.4142 21.285 62.5115 21.2724C62.6107 21.2659 62.7102 21.2795 62.804 21.3125C62.8978 21.3454 62.984 21.397 63.0574 21.4641L63.913 22.1575C64.0248 22.2449 64.1149 22.3569 64.1763 22.4848C64.2377 22.6128 64.2687 22.7532 64.267 22.8951C65.2111 26.5757 64.503 30.9349 60.2766 34.7704H60.2471Z" fill="white"/>
</svg>
