<svg width="80" height="80" viewBox="0 0 80 80" fill="none" xmlns="http://www.w3.org/2000/svg">
<path d="M48.3855 27.0028C48.7106 26.6778 49.1515 26.4951 49.6112 26.4951C49.8407 26.4922 50.0685 26.5349 50.2813 26.6207C50.4942 26.7065 50.6879 26.8337 50.8512 26.9949C51.0145 27.1562 51.1442 27.3483 51.2327 27.56C51.3212 27.7718 51.3667 27.999 51.3667 28.2285V47.1258C51.3413 48.3669 51.112 49.5954 50.6881 50.7621C50.1918 52.1878 49.4422 53.5121 48.4753 54.6714C47.7477 55.5294 46.8798 56.2576 45.9085 56.8252C44.4257 57.6683 42.746 58.1035 41.0403 58.0865C39.6989 58.0704 38.3744 57.7845 37.1458 57.2456C35.8547 56.6809 34.6502 55.9359 33.5684 55.0328C31.22 53.0779 29.3588 50.6031 28.1323 47.8044C26.4875 44.0795 25.5802 41.7708 25.0787 40.2956C24.8139 39.6039 24.5995 38.8939 24.437 38.1713C24.3979 37.9154 24.4167 37.654 24.4919 37.4063C24.5671 37.1585 24.6968 36.9308 24.8715 36.7398C25.0463 36.5488 25.2616 36.3993 25.5017 36.3024C25.7417 36.2055 26.0005 36.1636 26.2588 36.1798C26.46 36.2005 26.6566 36.2528 26.8415 36.3347C26.999 36.4025 27.1476 36.4892 27.2841 36.5929C27.5619 36.8046 27.81 37.0527 28.0217 37.3305C28.8664 38.5166 29.5904 39.7842 30.1829 41.1143C30.4934 41.7907 30.8954 42.4211 31.3778 42.9878C31.6031 43.2594 31.885 43.4785 32.2039 43.6296C32.2834 43.6638 32.3683 43.6838 32.4547 43.6886C32.5131 43.6878 32.5708 43.6752 32.6243 43.6517C32.6906 43.615 32.7504 43.5676 32.8013 43.5115C32.904 43.4058 32.9666 43.2675 32.9784 43.1206V27.8081C32.9784 27.3483 33.161 26.9075 33.4861 26.5824C33.8111 26.2573 34.252 26.0747 34.7117 26.0747C35.1714 26.0747 35.6123 26.2573 35.9374 26.5824C36.2625 26.9075 36.4451 27.3483 36.4451 27.8081V39.0859H38.0825V24.452C38.0825 23.9923 38.2652 23.5514 38.5902 23.2263C38.9153 22.9012 39.3562 22.7186 39.8159 22.7186C40.2756 22.7186 40.7165 22.9012 41.0416 23.2263C41.3666 23.5514 41.5493 23.9923 41.5493 24.452V39.0859H42.9433V24.8724C42.9279 24.6358 42.9611 24.3985 43.0411 24.1752C43.121 23.9519 43.2459 23.7474 43.408 23.5744C43.5701 23.4013 43.7661 23.2633 43.9836 23.169C44.2012 23.0747 44.4358 23.026 44.673 23.026C44.9101 23.026 45.1448 23.0747 45.3624 23.169C45.5799 23.2633 45.7759 23.4013 45.938 23.5744C46.1001 23.7474 46.225 23.9519 46.3049 24.1752C46.3849 24.3985 46.4181 24.6358 46.4027 24.8724V39.0859H47.8779V28.2285C47.8779 27.7688 48.0605 27.3279 48.3855 27.0028Z" fill="white"/>
<path fill-rule="evenodd" clip-rule="evenodd" d="M17.7764 6.74173C24.3546 2.34615 32.0884 0 40 0C50.6074 0 60.7804 4.21326 68.2817 11.7131C75.7829 19.213 79.998 29.3852 80 39.9926C80.0015 47.9042 77.6567 55.6385 73.2624 62.2174C68.868 68.7964 62.6214 73.9244 55.3125 76.953C48.0035 79.9817 39.9606 80.7749 32.2009 79.2323C24.4412 77.6897 17.3132 73.8807 11.7184 68.2869C6.12352 62.6931 2.31315 55.5658 0.769146 47.8063C-0.77486 40.0469 0.0168425 32.0038 3.04413 24.6944C6.07142 17.3849 11.1983 11.1373 17.7764 6.74173ZM9.50029 39.9926L24.7538 66.3839H55.2462L70.4924 39.9926L55.2462 13.5866H24.7538L9.50029 39.9926Z" fill="white"/>
</svg>
