<svg width="80" height="80" viewBox="0 0 80 80" fill="none" xmlns="http://www.w3.org/2000/svg">
<path d="M40 0C32.0888 0 24.3552 2.34596 17.7772 6.74121C11.1992 11.1365 6.07234 17.3836 3.04484 24.6927C0.0173314 32.0017 -0.774802 40.0444 0.768606 47.8036C2.31201 55.5628 6.12164 62.6902 11.7157 68.2842C17.3098 73.8783 24.4372 77.688 32.1964 79.2314C39.9556 80.7748 47.9983 79.9827 55.3073 76.9552C62.6164 73.9277 68.8635 68.8008 73.2588 62.2228C77.654 55.6448 80 47.9112 80 40C80 34.7471 78.9654 29.5457 76.9552 24.6927C74.945 19.8396 71.9986 15.4301 68.2843 11.7157C64.5699 8.00138 60.1604 5.05501 55.3073 3.04482C50.4543 1.03463 45.2529 0 40 0ZM18.9268 31.0972L30.1752 40.8999L18.9268 50.7026V31.0972ZM54.5233 61.0732H25.4767C23.9942 61.0721 22.5559 60.5682 21.397 59.6437C20.238 58.7192 19.427 57.4289 19.0965 55.9838L33.2879 43.6142L34.9991 45.0894C36.3851 46.2973 38.1615 46.9627 40 46.9627C41.8385 46.9627 43.6149 46.2973 45.0009 45.0894L46.7122 43.6142L60.9036 55.9838C60.573 57.4289 59.762 58.7192 58.603 59.6437C57.4441 60.5682 56.0058 61.0721 54.5233 61.0732ZM61.0732 50.7026L49.8248 40.8999L61.0732 31.0972V50.7026ZM61.0732 25.6684L42.3161 42.021C41.6727 42.5774 40.8506 42.8836 40 42.8836C39.1494 42.8836 38.3273 42.5774 37.6839 42.021L18.9268 25.6684V25.4767C18.9288 23.7401 19.6195 22.0753 20.8474 20.8474C22.0753 19.6194 23.7402 18.9287 25.4767 18.9268H54.5233C56.2599 18.9287 57.9247 19.6194 59.1526 20.8474C60.3806 22.0753 61.0713 23.7401 61.0732 25.4767V25.6684Z" fill="white"/>
</svg>
