<?xml version="1.0" encoding="utf-8"?>
<!-- Generator: Adobe Illustrator 25.2.2, SVG Export Plug-In . SVG Version: 6.00 Build 0)  -->
<svg version="1.1" id="Layer_1" xmlns="http://www.w3.org/2000/svg" xmlns:xlink="http://www.w3.org/1999/xlink" x="0px" y="0px"
	 viewBox="0 0 80 80" style="enable-background:new 0 0 80 80;" xml:space="preserve">
<style type="text/css">
	.st0{fill:#FFFFFF;}
	.st1{fill:#0097DD;}
</style>
<circle class="st0" cx="40" cy="40" r="40"/>
<path class="st1" d="M54.7,17.8c-2-0.9-4.9,1.9-4.9,1.9l-9.6,9c0,0-9.6-8.5-10.2-9.3c-0.7-0.8-2.2-1.6-3.8-1.6
	c-1.6,0-3.5,2.7-3.5,4.2c0,1.5,0,24.7,0,24.7c0,4,1.5,4.9,1.5,4.9l12.3,11.8c4.3,3.4,7,0,7,0s10.1-10,11.9-11.9
	c1.8-1.9,1.8-4.2,1.8-4.9c0-0.7,0-23.2,0-24.8C57.1,20.2,56.7,18.7,54.7,17.8z M51.3,46.2c0,0-0.1,1.5-0.4,1.9
	C50.5,48.5,40,58.4,40,58.4V36.8l9.3-9c0,0,2-1.2,2.1,0C51.4,29.1,51.3,46.2,51.3,46.2z"/>
</svg>
