<svg width="80" height="80" viewBox="0 0 80 80" fill="none" xmlns="http://www.w3.org/2000/svg">
<path d="M30.4634 58.0709H33.3622V25.6165C34.6083 25.3443 35.7496 24.7188 36.6496 23.8149C37.5495 22.911 38.17 21.767 38.4369 20.5197H53.7863C54.0526 21.7661 54.672 22.9094 55.5705 23.8132C56.4691 24.717 57.6088 25.343 58.8536 25.6165V58.0709H61.7155V17.7758H30.4634V58.0709Z" fill="white"/>
<path d="M47.5833 31.2935C47.1488 31.6048 46.6272 31.7709 46.0928 31.7683C45.5578 31.7732 45.0352 31.608 44.6003 31.2964C44.1654 30.9848 43.8408 30.543 43.6735 30.0349C43.6087 29.8119 43.574 29.5812 43.5702 29.3489C43.6051 28.7044 43.8857 28.0979 44.3542 27.654C44.8228 27.2101 45.4437 26.9627 46.0891 26.9627C46.7345 26.9627 47.3554 27.2101 47.824 27.654C48.2925 28.0979 48.5731 28.7044 48.608 29.3489C48.6066 29.5808 48.5744 29.8115 48.5121 30.0349C48.3428 30.5418 48.0177 30.9823 47.5833 31.2935Z" fill="white"/>
<path fill-rule="evenodd" clip-rule="evenodd" d="M35.4638 46.8087C35.4638 41.1734 40.1918 36.6077 46.0926 36.6077C51.9565 36.6077 56.7214 41.1808 56.7214 46.8087C56.7214 52.4365 51.9639 57.0023 46.0926 57.0023C40.2213 57.0023 35.4638 52.4439 35.4638 46.8087ZM52.1704 48.0478H54.0144V45.9678H52.1114C52.0766 45.6914 52.0223 45.4178 51.9492 45.1491C51.8056 44.59 51.5551 44.064 51.2115 43.6001C50.8727 43.1735 50.4448 42.8261 49.9576 42.5822C49.4135 42.3269 48.8178 42.2006 48.2169 42.2134C47.7528 42.1784 47.2865 42.2425 46.8491 42.4015C46.4116 42.5604 46.0129 42.8106 45.6796 43.1354C45.0344 43.9158 44.6683 44.8893 44.6395 45.9014L44.4846 47.5758C44.4725 48.0276 44.3176 48.464 44.0421 48.8223C43.9115 48.9505 43.7552 49.0496 43.5836 49.1132C43.412 49.1767 43.2289 49.2033 43.0463 49.1911C42.8258 49.1977 42.6067 49.1547 42.405 49.0653C42.2033 48.976 42.0242 48.8425 41.8809 48.6748C41.5437 48.2097 41.3841 47.6393 41.431 47.0668C41.4266 46.5307 41.4986 45.9967 41.6449 45.481C41.7785 45.0924 41.9754 44.7285 42.2276 44.4041C42.2632 44.34 42.2759 44.2657 42.2639 44.1934C42.2518 44.121 42.2156 44.0549 42.1612 44.0058L41.0917 43.0248C41.048 42.9859 40.9962 42.9572 40.9401 42.9407C40.884 42.9241 40.825 42.9201 40.7672 42.9289C40.7121 42.9356 40.6594 42.955 40.6133 42.9858C40.5672 43.0165 40.5289 43.0577 40.5016 43.1059C40.1318 43.5447 39.8399 44.0437 39.6386 44.5811C39.51 45.0347 39.4211 45.4987 39.3731 45.9678H37.7873V47.9814H39.4173C39.4516 48.2306 39.5034 48.4771 39.5722 48.719C39.7238 49.2278 39.9745 49.7016 40.3098 50.1131C40.6438 50.5126 41.0586 50.8369 41.5269 51.0646C42.0354 51.3098 42.5924 51.4383 43.157 51.4408C43.612 51.4755 44.0692 51.4125 44.498 51.256C44.9267 51.0995 45.317 50.8532 45.6427 50.5335C46.2376 49.8076 46.5863 48.9112 46.6384 47.9741L46.8228 46.0784C46.8439 45.6323 47.0096 45.2051 47.2949 44.8614C47.5769 44.6134 47.9452 44.4863 48.3202 44.5074C48.5864 44.4935 48.851 44.5554 49.0834 44.686C49.3159 44.8166 49.5064 45.0104 49.6331 45.2449C49.9322 45.8096 50.0772 46.4431 50.0535 47.0816C50.0546 47.6811 49.9676 48.2776 49.7954 48.8518C49.5759 49.3611 49.2688 49.8279 48.8881 50.2311C48.8453 50.2977 48.8277 50.3775 48.8385 50.4559C48.8493 50.5344 48.8879 50.6064 48.9471 50.6589L50.0683 51.7063C50.111 51.742 50.1604 51.7689 50.2136 51.7853C50.2667 51.8018 50.3226 51.8075 50.3781 51.8022C50.433 51.7949 50.4857 51.776 50.5328 51.7467C50.5798 51.7175 50.6201 51.6786 50.651 51.6326C51.1577 51.0785 51.5667 50.4425 51.8606 49.7517C52.0188 49.1951 52.1226 48.6245 52.1704 48.0478Z" fill="white"/>
<path fill-rule="evenodd" clip-rule="evenodd" d="M17.7772 6.74121C24.3552 2.34596 32.0888 0 40 0C45.2529 0 50.4543 1.03463 55.3073 3.04482C60.1604 5.05501 64.5699 8.00138 68.2843 11.7157C71.9986 15.4301 74.945 19.8396 76.9552 24.6927C78.9654 29.5457 80 34.7471 80 40C80 47.9112 77.654 55.6448 73.2588 62.2228C68.8635 68.8008 62.6164 73.9277 55.3073 76.9552C47.9983 79.9827 39.9556 80.7748 32.1964 79.2314C24.4372 77.688 17.3098 73.8783 11.7157 68.2843C6.12164 62.6902 2.31202 55.5628 0.768607 47.8036C-0.774802 40.0444 0.0173315 32.0017 3.04484 24.6927C6.07234 17.3836 11.1992 11.1365 17.7772 6.74121ZM14.7594 41.5194L10.496 37.2635L7.6858 40.0664L16.7288 49.1093L19.539 46.3065L25.7791 40.0664L22.9762 37.2635L18.7129 41.5194C18.7793 37.7872 18.8457 30.0424 18.8457 30.0424H14.7594V41.5194ZM17.282 62.4968H65.6758C66.4628 62.5364 67.2495 62.4157 67.9884 62.1419C68.7272 61.8681 69.4026 61.4469 69.9736 60.904C70.5446 60.361 70.9993 59.7077 71.31 58.9836C71.6206 58.2595 71.7808 57.4798 71.7808 56.6919C71.7808 55.9039 71.6206 55.1242 71.31 54.4001C70.9993 53.676 70.5446 53.0227 69.9736 52.4797C69.4026 51.9368 68.7272 51.5156 67.9884 51.2418C67.2495 50.968 66.4628 50.8473 65.6758 50.887L65.6094 58.0712H63.7359V15.8436H28.4492V58.0712H26.4134V50.6952L17.282 50.887C16.495 50.8473 15.7083 50.968 14.9694 51.2418C14.2306 51.5156 13.5552 51.9368 12.9842 52.4797C12.4132 53.0227 11.9585 53.676 11.6478 54.4001C11.3372 55.1242 11.177 55.9039 11.177 56.6919C11.177 57.4798 11.3372 58.2595 11.6478 58.9836C11.9585 59.7077 12.4132 60.361 12.9842 60.904C13.5552 61.4469 14.2306 61.8681 14.9694 62.1419C15.7083 62.4157 16.495 62.5364 17.282 62.4968Z" fill="white"/>
</svg>
