<svg width="80" height="80" viewBox="0 0 80 80" fill="none" xmlns="http://www.w3.org/2000/svg">
<path d="M39.9926 6.80128e-07C32.0817 0.00145946 24.3488 2.34866 17.7718 6.7448C11.1948 11.1409 6.06909 17.3886 3.04272 24.6978C0.0163456 32.0069 -0.774735 40.0494 0.769506 47.8081C2.31375 55.5669 6.12396 62.6935 11.7184 68.2869C17.3127 73.8802 24.4401 77.6891 32.1991 79.2319C39.9581 80.7747 48.0004 79.9822 55.309 76.9545C62.6177 73.9267 68.8644 68.7998 73.2593 62.222C77.6542 55.6442 80 47.9109 80 40C80 34.7465 78.9651 29.5445 76.9545 24.691C74.9438 19.8375 71.9968 15.4276 68.2817 11.7131C64.5665 7.99868 60.1561 5.05245 55.3022 3.0427C50.4484 1.03295 45.2461 -0.000968063 39.9926 6.80128e-07ZM44.8313 64.6284H33.1846V53.6751H44.8313V64.6284ZM54.5086 36.9316C53.1219 38.2076 52.5392 38.6133 47.5014 41.7407C45.0673 43.3044 44.1969 44.8091 44.1969 47.4792C44.2069 48.2344 44.2636 48.9882 44.3666 49.7363H33.5903C33.7085 48.854 33.748 47.9629 33.7083 47.0736C33.7083 43.0758 34.4016 40.7523 36.2604 38.4953C37.6471 36.8726 38.1118 36.5259 42.2276 34.0328C45.0673 32.3511 45.9893 31.1414 45.9893 29.2237C45.9893 26.5019 43.9609 24.8792 40.4868 24.8792C37.8831 24.8792 35.9653 25.8086 34.8663 27.601C34.2411 28.6808 33.8844 29.895 33.8263 31.1414L21.892 29.976C22.4673 25.8676 23.3672 23.6032 25.58 21.1691C28.9434 17.3483 34.0992 15.3789 40.7597 15.3789C51.4254 15.3789 58.0859 20.4167 58.0859 28.4123C58.1489 30.0075 57.8611 31.5971 57.2431 33.0691C56.625 34.541 55.6915 35.8595 54.5086 36.9316Z" fill="white"/>
</svg>
