<svg width="20" height="20" viewBox="0 0 20 20" fill="none" xmlns="http://www.w3.org/2000/svg">
<path fill-rule="evenodd" clip-rule="evenodd" d="M10 19C14.9706 19 19 14.9706 19 10C19 5.02944 14.9706 1 10 1C5.02944 1 1 5.02944 1 10C1 14.9706 5.02944 19 10 19ZM10 20C15.5228 20 20 15.5228 20 10C20 4.47715 15.5228 0 10 0C4.47715 0 0 4.47715 0 10C0 15.5228 4.47715 20 10 20Z" fill="white"/>
<path d="M14.5 8.5C14.5 8.22386 14.7239 8 15 8C15.2761 8 15.5 8.22386 15.5 8.5V11.5C15.5 11.7761 15.2761 12 15 12C14.7239 12 14.5 11.7761 14.5 11.5V8.5Z" fill="white"/>
<path d="M13.5 10.5C13.2239 10.5 13 10.2761 13 10C13 9.72386 13.2239 9.5 13.5 9.5H16.5C16.7761 9.5 17 9.72386 17 10C17 10.2761 16.7761 10.5 16.5 10.5H13.5Z" fill="white"/>
<path d="M5 7H6V13H5V7Z" fill="white"/>
<path d="M6 7V8H4V7H6Z" fill="white"/>
<path fill-rule="evenodd" clip-rule="evenodd" d="M9.5 9C10.0523 9 10.5 8.55228 10.5 8C10.5 7.44772 10.0523 7 9.5 7C8.94772 7 8.5 7.44772 8.5 8C8.5 8.55228 8.94772 9 9.5 9ZM9.5 10C10.6046 10 11.5 9.10457 11.5 8C11.5 6.89543 10.6046 6 9.5 6C8.39543 6 7.5 6.89543 7.5 8C7.5 9.10457 8.39543 10 9.5 10Z" fill="white"/>
<path fill-rule="evenodd" clip-rule="evenodd" d="M9.5 13C10.3284 13 11 12.3284 11 11.5C11 10.6716 10.3284 10 9.5 10C8.67157 10 8 10.6716 8 11.5C8 12.3284 8.67157 13 9.5 13ZM9.5 14C10.8807 14 12 12.8807 12 11.5C12 10.1193 10.8807 9 9.5 9C8.11929 9 7 10.1193 7 11.5C7 12.8807 8.11929 14 9.5 14Z" fill="white"/>
</svg>
