<?xml version="1.0" encoding="utf-8"?>
<!-- Generator: Adobe Illustrator 25.2.2, SVG Export Plug-In . SVG Version: 6.00 Build 0)  -->
<svg version="1.1" id="Layer_1" xmlns="http://www.w3.org/2000/svg" xmlns:xlink="http://www.w3.org/1999/xlink" x="0px" y="0px"
	 viewBox="0 0 80 80" style="enable-background:new 0 0 80 80;" xml:space="preserve">
<style type="text/css">
	.st0{fill:#FFFFFF;}
</style>
<g>
	<path class="st0" d="M30.4,47.3v4.1H14.7c0.2-1.6,0.7-3.1,1.5-4.5c0.8-1.4,2.5-3.3,5-5.6c2-1.9,3.2-3.1,3.7-3.8
		c0.6-0.9,0.9-1.8,0.9-2.7c0-1-0.3-1.8-0.8-2.3c-0.5-0.5-1.3-0.8-2.2-0.8c-0.9,0-1.7,0.3-2.2,0.8c-0.6,0.6-0.9,1.5-1,2.8L15.3,35
		c0.3-2.5,1.1-4.2,2.5-5.3s3.1-1.6,5.2-1.6c2.3,0,4.1,0.6,5.4,1.9s2,2.8,2,4.6c0,1-0.2,2-0.6,3c-0.4,0.9-1,1.9-1.8,3
		c-0.5,0.7-1.5,1.7-2.9,3c-1.4,1.3-2.3,2.1-2.7,2.6c-0.4,0.4-0.7,0.8-0.9,1.2H30.4z"/>
	<path class="st0" d="M40.9,28.1c2.3,0,4,0.8,5.3,2.4c1.5,1.9,2.3,5.1,2.3,9.5c0,4.4-0.8,7.6-2.3,9.5c-1.3,1.6-3,2.4-5.3,2.4
		c-2.3,0-4.1-0.9-5.5-2.6c-1.4-1.7-2.1-4.8-2.1-9.3c0-4.4,0.8-7.5,2.3-9.5C36.9,28.9,38.7,28.1,40.9,28.1z M40.9,31.8
		c-0.5,0-1,0.2-1.4,0.5c-0.4,0.3-0.8,1-1,1.8c-0.3,1.2-0.5,3.1-0.5,5.8c0,2.7,0.1,4.6,0.4,5.6c0.3,1,0.6,1.7,1,2s0.9,0.5,1.4,0.5
		c0.5,0,1-0.2,1.4-0.5c0.4-0.3,0.8-1,1-1.8c0.3-1.1,0.5-3.1,0.5-5.8c0-2.7-0.1-4.6-0.4-5.6c-0.3-1-0.6-1.7-1-2
		C42,31.9,41.5,31.8,40.9,31.8z"/>
	<path class="st0" d="M57.6,48.1V42h-6.1v-4.2h6.1v-6.1h4.1v6.1h6.1V42h-6.1v6.1H57.6z"/>
</g>
<path class="st0" d="M40,1C18.5,1,1.1,18.4,1.1,39.9c0,21.5,17.4,38.9,38.9,38.9s38.9-17.4,38.9-38.9C78.9,18.4,61.5,1,40,1z
	 M40,74.8c-19.3,0-34.9-15.6-34.9-34.9C5.1,20.7,20.7,5,40,5s34.9,15.6,34.9,34.9C74.9,59.2,59.3,74.8,40,74.8z"/>
</svg>
