<svg width="20" height="24" viewBox="0 0 20 24" fill="none" xmlns="http://www.w3.org/2000/svg">
<path fill-rule="evenodd" clip-rule="evenodd" d="M13.8601 1.2706C13.3001 2.40001 13.7201 3.81178 14.8401 4.37648C15.9601 4.94119 17.3601 4.51766 17.9201 3.24707C18.4801 2.11766 18.0601 0.847073 16.9401 0.282367C15.8201 -0.282339 14.4201 0.141191 13.8601 1.2706ZM7.28008 21.1765C6.02008 20.6118 4.90008 20.0471 3.92008 19.3412C3.78008 20.6118 4.20008 21.7412 5.04008 22.4471C6.58008 24.1412 9.10008 24.1412 10.7801 22.5882C10.5437 22.4988 10.301 22.4094 10.0547 22.3187C9.13436 21.9796 8.16365 21.622 7.28008 21.1765Z" fill="white"/>
<path d="M19.1801 10.447C18.0601 13.5529 17.5001 16.8 17.7801 20.1882C18.0601 20.6117 18.0601 21.0353 17.9201 21.4588C17.2201 23.0117 12.6001 22.447 7.70005 20.1882C2.80005 17.9294 -0.559948 14.6823 0.140052 13.1294C0.280052 12.7059 0.700052 12.4235 1.12005 12.4235C3.78005 10.447 6.02005 8.04703 7.56005 5.08233C8.40005 3.24703 10.2201 1.83527 12.3201 1.69409C11.9001 3.52939 13.0201 5.36468 14.8401 5.78821C16.2401 6.07056 17.6401 5.50586 18.3401 4.37644C19.7401 6.07056 20.0201 8.47056 19.1801 10.447Z" fill="white"/>
</svg>
