<svg width="20" height="22" viewBox="0 0 20 22" fill="none" xmlns="http://www.w3.org/2000/svg">
<path d="M16.6667 2H18C19.1046 2 20 2.89543 20 4V20C20 21.1046 19.1046 22 18 22H2C0.89543 22 0 21.1046 0 20V4C0 2.89543 0.89543 2 2 2H3.33333V4.44444C3.33333 5.54901 4.22876 6.44444 5.33333 6.44444H5.77778C6.88235 6.44444 7.77778 5.54901 7.77778 4.44444V2H12.2222V4.44444C12.2222 5.54901 13.1177 6.44444 14.2222 6.44444H14.6667C15.7712 6.44444 16.6667 5.54901 16.6667 4.44444V2ZM2.22222 7.66667V19.6667H17.7778V7.66667H2.22222ZM5.5 0C6.32843 0 7 0.671573 7 1.5V4.3C7 5.12843 6.32843 5.8 5.5 5.8C4.67157 5.8 4 5.12843 4 4.3V1.5C4 0.671573 4.67157 0 5.5 0ZM14.5 0C15.3284 0 16 0.671573 16 1.5V4.3C16 5.12843 15.3284 5.8 14.5 5.8C13.6716 5.8 13 5.12843 13 4.3V1.5C13 0.671573 13.6716 0 14.5 0Z" fill="white"/>
</svg>
