<?xml version="1.0" encoding="utf-8"?>
<!-- Generator: Adobe Illustrator 25.2.2, SVG Export Plug-In . SVG Version: 6.00 Build 0)  -->
<svg version="1.1" id="Layer_1" xmlns="http://www.w3.org/2000/svg" xmlns:xlink="http://www.w3.org/1999/xlink" x="0px" y="0px"
	 viewBox="0 0 36 36" style="enable-background:new 0 0 36 36;" xml:space="preserve">
<style type="text/css">
	.st0{fill-rule:evenodd;clip-rule:evenodd;fill:#00496B;}
	.st1{fill:#FFFFFF;}
</style>
<path class="st0" d="M18,36c9.9,0,18-8.1,18-18c0-9.9-8.1-18-18-18C8.1,0,0,8.1,0,18C0,27.9,8.1,36,18,36z"/>
<path class="st1" d="M23.4,24.6c0.8,0.8,0.8,2,0,2.8c-0.8,0.8-2,0.8-2.8,0l-8-8c-0.8-0.8-0.8-2,0-2.8l8-8c0.8-0.8,2-0.8,2.8,0
	c0.8,0.8,0.8,2,0,2.8L16.8,18L23.4,24.6z"/>
</svg>
