<svg width="19" height="19" viewBox="0 0 19 19" fill="none" xmlns="http://www.w3.org/2000/svg">
<path d="M0.58481 14.729C-0.196239 15.51 -0.196239 16.7763 0.58481 17.5574C1.36586 18.3384 2.63219 18.3384 3.41324 17.5574L9.07009 11.9005L14.7269 17.5574C15.508 18.3384 16.7743 18.3384 17.5554 17.5574C18.3364 16.7763 18.3364 15.51 17.5554 14.729L11.8985 9.07211L17.5554 3.41525C18.3364 2.6342 18.3364 1.36787 17.5554 0.586824C16.7743 -0.194224 15.508 -0.194225 14.7269 0.586824L9.07009 6.24368L3.41324 0.586824C2.63219 -0.194225 1.36586 -0.194224 0.584811 0.586824C-0.196237 1.36787 -0.196237 2.6342 0.584811 3.41525L6.24166 9.07211L0.58481 14.729Z" fill="white"/>
</svg>
