<?xml version="1.0" encoding="utf-8"?>
<!-- Generator: Adobe Illustrator 25.2.2, SVG Export Plug-In . SVG Version: 6.00 Build 0)  -->
<svg version="1.1" id="Layer_1" xmlns="http://www.w3.org/2000/svg" xmlns:xlink="http://www.w3.org/1999/xlink" x="0px" y="0px"
	 viewBox="0 0 80 80" style="enable-background:new 0 0 80 80;" xml:space="preserve">
<style type="text/css">
	.st0{fill:#FFFFFF;}
	.st1{fill:#0097DD;}
</style>
<circle class="st0" cx="40" cy="40" r="40"/>
<path class="st1" d="M46.9,57h14.3c2.5,0,4.5-2,4.5-4.5V23.8c0-2.5-2-4.5-4.5-4.5H18.8c-2.5,0-4.5,2-4.5,4.5v28.6
	c0,2.5,2,4.5,4.5,4.5h14.4c0,0-0.7,3.1-1.1,3.9c-0.4,0.7-0.6,2.6,1.1,2.6c1.8,0,12,0,13.4,0c1.4,0,1.8-2,1.4-3.1
	C47.5,59.2,46.9,57.3,46.9,57z"/>
<path class="st0" d="M61.7,49.2H18.3c-0.7,0-1.3-0.6-1.3-1.3V23.3c0-0.7,0.6-1.3,1.3-1.3h43.4c0.7,0,1.3,0.6,1.3,1.3v24.6
	C62.9,48.6,62.4,49.2,61.7,49.2z"/>
</svg>
