<?xml version="1.0" encoding="utf-8"?>
<!-- Generator: Adobe Illustrator 25.2.2, SVG Export Plug-In . SVG Version: 6.00 Build 0)  -->
<svg version="1.1" id="Layer_1" xmlns="http://www.w3.org/2000/svg" xmlns:xlink="http://www.w3.org/1999/xlink" x="0px" y="0px"
	 viewBox="0 0 20 20" style="enable-background:new 0 0 20 20;" xml:space="preserve">
<style type="text/css">
	.st0{fill:#FF6581;}
	.st1{fill:#FFFFFF;}
</style>
<path class="st0" d="M14.7,0.3c-0.1-0.1-0.2-0.2-0.3-0.2C14.3,0,14.1,0,14,0H6C5.9,0,5.7,0,5.6,0.1C5.5,0.1,5.4,0.2,5.3,0.3l-5,5
	C0.2,5.4,0.1,5.5,0.1,5.6C0,5.7,0,5.9,0,6v8c0,0.3,0.1,0.5,0.3,0.7l5,5c0.1,0.1,0.2,0.2,0.3,0.2C5.7,20,5.9,20,6,20h8
	c0.3,0,0.5-0.1,0.7-0.3l5-5c0.1-0.1,0.2-0.2,0.2-0.3C20,14.3,20,14.1,20,14V6c0-0.1,0-0.3-0.1-0.4c-0.1-0.1-0.1-0.2-0.2-0.3
	L14.7,0.3z"/>
<path class="st1" d="M10,13.4L10,13.4c0.8,0,1.5,0.7,1.5,1.5l0,0c0,0.8-0.7,1.5-1.5,1.5l0,0c-0.8,0-1.5-0.7-1.5-1.5l0,0
	C8.5,14.1,9.2,13.4,10,13.4z"/>
<path class="st1" d="M10,3.2L10,3.2c0.8,0,1.5,0.7,1.5,1.5v5.9c0,0.8-0.7,1.5-1.5,1.5l0,0c-0.8,0-1.5-0.7-1.5-1.5V4.6
	C8.5,3.8,9.2,3.2,10,3.2z"/>
</svg>
