<?xml version="1.0" encoding="utf-8"?>
<!-- Generator: Adobe Illustrator 25.2.2, SVG Export Plug-In . SVG Version: 6.00 Build 0)  -->
<svg version="1.1" id="Layer_1" xmlns="http://www.w3.org/2000/svg" xmlns:xlink="http://www.w3.org/1999/xlink" x="0px" y="0px"
	 viewBox="0 0 20 20" style="enable-background:new 0 0 20 20;" xml:space="preserve">
<style type="text/css">
	.st0{fill:#FF6581;}
	.st1{fill:#FFFFFF;}
</style>
<path class="st0" d="M14.7,0.3c-0.1-0.1-0.2-0.2-0.3-0.2C14.3,0,14.1,0,14,0H6C5.9,0,5.7,0,5.6,0.1C5.5,0.1,5.4,0.2,5.3,0.3l-5,5
	C0.2,5.4,0.1,5.5,0.1,5.6C0,5.7,0,5.9,0,6v8c0,0.3,0.1,0.5,0.3,0.7l5,5c0.1,0.1,0.2,0.2,0.3,0.2C5.7,20,5.9,20,6,20h8
	c0.3,0,0.5-0.1,0.7-0.3l5-5c0.1-0.1,0.2-0.2,0.2-0.3C20,14.3,20,14.1,20,14V6c0-0.1,0-0.3-0.1-0.4c-0.1-0.1-0.1-0.2-0.2-0.3
	L14.7,0.3z"/>
<path class="st1" d="M6.1,7.5c-0.4-0.4-0.4-1,0-1.4c0.4-0.4,1-0.4,1.4,0l7.1,7.1c0.4,0.4,0.4,1,0,1.4c-0.4,0.4-1,0.4-1.4,0L6.1,7.5z
	"/>
<path class="st1" d="M7.5,14.6c-0.4,0.4-1,0.4-1.4,0c-0.4-0.4-0.4-1,0-1.4l7.1-7.1c0.4-0.4,1-0.4,1.4,0c0.4,0.4,0.4,1,0,1.4
	L7.5,14.6z"/>
</svg>
