<?xml version="1.0" encoding="utf-8"?>
<!-- Generator: Adobe Illustrator 25.2.2, SVG Export Plug-In . SVG Version: 6.00 Build 0)  -->
<svg version="1.1" id="Layer_1" xmlns="http://www.w3.org/2000/svg" xmlns:xlink="http://www.w3.org/1999/xlink" x="0px" y="0px"
	 viewBox="0 0 80 80" style="enable-background:new 0 0 80 80;" xml:space="preserve">
<style type="text/css">
	.st0{fill:#00405E;}
	.st1{fill:#0097DD;}
</style>
<circle class="st0" cx="40" cy="40" r="40"/>
<path class="st1" d="M60.3,22.3H19.7c-1.1,0-2,0.9-2,2v31.3c0,1.1,0.9,2,2,2h40.5c1.1,0,2-0.9,2-2V24.3
	C62.3,23.2,61.4,22.3,60.3,22.3z M51.6,44l-3,3l6.2,6.2H25.2l6.2-6.2l-3-3L22,50.4V29.5l15,15l0,0l1.9,1.9c0,0,0.3,0.4,1,0.4
	s1-0.4,1-0.4l1.9-1.9l0,0l15-15v20.9L51.6,44z M25.4,26.9h29.3L40,41.5L25.4,26.9z"/>
</svg>
