<?xml version="1.0" encoding="utf-8"?>
<!-- Generator: Adobe Illustrator 25.2.2, SVG Export Plug-In . SVG Version: 6.00 Build 0)  -->
<svg version="1.1" id="Layer_1" xmlns="http://www.w3.org/2000/svg" xmlns:xlink="http://www.w3.org/1999/xlink" x="0px" y="0px"
	 viewBox="0 0 80 80" style="enable-background:new 0 0 80 80;" xml:space="preserve">
<style type="text/css">
	.st0{fill:#FFFFFF;}
</style>
<path class="st0" d="M40,0.8C18.4,0.8,0.8,18.4,0.8,40c0,21.6,17.5,39.2,39.2,39.2c21.6,0,39.2-17.5,39.2-39.2
	C79.2,18.4,61.6,0.8,40,0.8z M40,72.9C21.8,72.9,7.1,58.2,7.1,40C7.1,21.8,21.8,7.1,40,7.1c18.2,0,32.9,14.7,32.9,32.9
	C72.9,58.2,58.2,72.9,40,72.9z"/>
<rect x="36.6" y="20.4" class="st0" width="6.7" height="39.3"/>
<rect x="36.6" y="20.4" transform="matrix(6.123234e-17 -1 1 6.123234e-17 0 80)" class="st0" width="6.7" height="39.3"/>
</svg>
