<svg width="22" height="22" viewBox="0 0 22 22" fill="none" xmlns="http://www.w3.org/2000/svg">
<path fill-rule="evenodd" clip-rule="evenodd" d="M0 1.1C0 0.492487 0.492487 0 1.1 0H20.9C21.5075 0 22 0.492487 22 1.1V20.9C22 21.5075 21.5075 22 20.9 22H1.1C0.492487 22 0 21.5075 0 20.9V1.1ZM3.3 3.52C3.3 3.3985 3.3985 3.3 3.52 3.3H9.13C9.2515 3.3 9.35 3.3985 9.35 3.52V9.13C9.35 9.2515 9.2515 9.35 9.13 9.35H3.52C3.3985 9.35 3.3 9.2515 3.3 9.13V3.52ZM3.52 12.65C3.3985 12.65 3.3 12.7485 3.3 12.87V18.48C3.3 18.6015 3.3985 18.7 3.52 18.7H9.13C9.2515 18.7 9.35 18.6015 9.35 18.48V12.87C9.35 12.7485 9.2515 12.65 9.13 12.65H3.52ZM12.65 3.52C12.65 3.3985 12.7485 3.3 12.87 3.3H18.48C18.6015 3.3 18.7 3.3985 18.7 3.52V9.13C18.7 9.2515 18.6015 9.35 18.48 9.35H12.87C12.7485 9.35 12.65 9.2515 12.65 9.13V3.52ZM12.87 12.65C12.7485 12.65 12.65 12.7485 12.65 12.87V18.48C12.65 18.6015 12.7485 18.7 12.87 18.7H18.48C18.6015 18.7 18.7 18.6015 18.7 18.48V12.87C18.7 12.7485 18.6015 12.65 18.48 12.65H12.87Z" fill="white"/>
</svg>
