<svg width="24" height="22" viewBox="0 0 24 22" fill="none" xmlns="http://www.w3.org/2000/svg">
<path d="M12 3L3.00001 11V22H10V15H14V22H21V11L12 3Z" fill="white"/>
<path fill-rule="evenodd" clip-rule="evenodd" d="M16 0H20V7L16 4V0Z" fill="white"/>
<path fill-rule="evenodd" clip-rule="evenodd" d="M1.00001 11L12 1L23 11" fill="white"/>
<path fill-rule="evenodd" clip-rule="evenodd" d="M11.3273 0.26006C11.7088 -0.0866866 12.2913 -0.0866866 12.6727 0.26006L23.6727 10.2601C24.0813 10.6316 24.1115 11.264 23.7399 11.6727C23.3684 12.0813 22.736 12.1114 22.3273 11.7399L12 2.35146L1.67268 11.7399C1.26402 12.1114 0.631574 12.0813 0.260067 11.6727C-0.11144 11.264 -0.0813234 10.6316 0.327334 10.2601L11.3273 0.26006Z" fill="white"/>
</svg>
