<svg width="48" height="48" viewBox="0 0 48 48" fill="none" xmlns="http://www.w3.org/2000/svg">
<path d="M24 0C10.7451 0 0 10.7448 0 23.9998C0 37.2544 10.7451 47.9995 24 47.9995C37.2548 47.9995 48 37.2544 48 23.9998C48 10.7448 37.2548 0 24 0ZM23.5327 38.0887C20.0732 39.3045 17.2211 37.9103 17.7932 34.5878C18.3656 31.2648 21.6483 24.1503 22.1167 22.8051C22.5847 21.4598 21.6871 21.0911 20.7253 21.6383C20.1704 21.9586 19.3459 22.6 18.638 23.2235C18.4417 22.8282 18.1656 22.3765 17.9584 21.9439C19.1136 20.7863 21.0444 19.2345 23.3302 18.6721C26.0612 17.9979 30.6262 19.0756 28.6642 24.2959C27.2633 28.0167 26.2724 30.5844 25.6481 32.4965C25.0241 34.4092 25.7653 34.8104 26.8576 34.0651C27.711 33.4824 28.6202 32.6899 29.2866 32.0753C29.5949 32.5764 29.6937 32.7361 29.9985 33.3119C28.8418 34.4974 25.8156 37.2725 23.5327 38.0887ZM30.7009 15.0722C29.1317 16.4077 26.8058 16.379 25.5047 15.0069C24.2038 13.6356 24.4209 11.4411 25.9897 10.1053C27.5588 8.76979 29.885 8.79868 31.1858 10.1697C32.4866 11.5414 32.2695 13.7359 30.7009 15.0722Z" fill="#F7901D"/>
</svg>
