<?xml version="1.0" encoding="utf-8"?>
<!-- Generator: Adobe Illustrator 25.2.2, SVG Export Plug-In . SVG Version: 6.00 Build 0)  -->
<svg version="1.1" id="Layer_1" xmlns="http://www.w3.org/2000/svg" xmlns:xlink="http://www.w3.org/1999/xlink" x="0px" y="0px"
	 viewBox="0 0 80 80" style="enable-background:new 0 0 80 80;" xml:space="preserve">
<style type="text/css">
	.st0{fill:#FFFFFF;}
	.st1{fill:#0097DD;}
</style>
<path class="st0" d="M75.3,80H4.7C2.1,80,0,77.9,0,75.3V4.7C0,2.1,2.1,0,4.7,0h70.6C77.9,0,80,2.1,80,4.7v70.6
	C80,77.9,77.9,80,75.3,80z"/>
<g>
	<path class="st1" d="M26.3,14.5h-12c-1,0-1.8-0.8-1.8-1.8v0c0-1,0.8-1.8,1.8-1.8h12c1,0,1.8,0.8,1.8,1.8v0
		C28.1,13.7,27.3,14.5,26.3,14.5z"/>
	<path class="st1" d="M26.3,32.7h-12c-1,0-1.8-0.8-1.8-1.8v0c0-1,0.8-1.8,1.8-1.8h12c1,0,1.8,0.8,1.8,1.8v0
		C28.1,31.9,27.3,32.7,26.3,32.7z"/>
	<path class="st1" d="M26.3,50.8h-12c-1,0-1.8-0.8-1.8-1.8v0c0-1,0.8-1.8,1.8-1.8h12c1,0,1.8,0.8,1.8,1.8v0
		C28.1,50,27.3,50.8,26.3,50.8z"/>
	<path class="st1" d="M26.3,69h-12c-1,0-1.8-0.8-1.8-1.8v0c0-1,0.8-1.8,1.8-1.8h12c1,0,1.8,0.8,1.8,1.8v0C28.1,68.2,27.3,69,26.3,69
		z"/>
	<path class="st1" d="M65.7,14.5H41c-1,0-1.8-0.8-1.8-1.8v0c0-1,0.8-1.8,1.8-1.8h24.7c1,0,1.8,0.8,1.8,1.8v0
		C67.4,13.7,66.6,14.5,65.7,14.5z"/>
	<path class="st1" d="M65.7,32.7H41c-1,0-1.8-0.8-1.8-1.8v0c0-1,0.8-1.8,1.8-1.8h24.7c1,0,1.8,0.8,1.8,1.8v0
		C67.4,31.9,66.6,32.7,65.7,32.7z"/>
	<path class="st1" d="M65.7,50.8H41c-1,0-1.8-0.8-1.8-1.8v0c0-1,0.8-1.8,1.8-1.8h24.7c1,0,1.8,0.8,1.8,1.8v0
		C67.4,50,66.6,50.8,65.7,50.8z"/>
	<path class="st1" d="M65.7,69H41c-1,0-1.8-0.8-1.8-1.8v0c0-1,0.8-1.8,1.8-1.8h24.7c1,0,1.8,0.8,1.8,1.8v0
		C67.4,68.2,66.6,69,65.7,69z"/>
</g>
</svg>
