<?xml version="1.0" encoding="utf-8"?>
<!-- Generator: Adobe Illustrator 25.2.2, SVG Export Plug-In . SVG Version: 6.00 Build 0)  -->
<svg version="1.1" id="Layer_1" xmlns="http://www.w3.org/2000/svg" xmlns:xlink="http://www.w3.org/1999/xlink" x="0px" y="0px"
	 viewBox="0 0 80 80" style="enable-background:new 0 0 80 80;" xml:space="preserve">
<style type="text/css">
	.st0{fill:#00405E;}
	.st1{fill:#0097DD;stroke:#0097DD;stroke-miterlimit:10;}
</style>
<circle class="st0" cx="40" cy="40" r="40"/>
<path class="st1" d="M43.2,53.5l-4.1,4.1c-4.6,4.6-12.2,4.6-16.8,0h0c-4.6-4.6-4.6-12.2,0-16.8l5.7-5.7c4.6-4.6,12.2-4.6,16.8,0
	c0.1,0.1,0.2,0.2,0.2,0.3c0,0,0.5,1-0.4,2c-1,1-2,0.4-2,0.4c-0.1-0.1-0.2-0.2-0.2-0.3v0c-3.5-3.5-9.2-3.5-12.7,0l-4.9,4.9
	c-3.5,3.5-3.5,9.2,0,12.7c3.5,3.5,9.2,3.5,12.7,0l3.7-3.7c0,0,1.2-0.7,1.9,0S43.2,53.5,43.2,53.5z M36.9,28.5c0.7,0.7,1.9,0,1.9,0
	l3.7-3.7c3.5-3.5,9.2-3.5,12.7,0c3.5,3.5,3.5,9.2,0,12.7l-4.9,4.9c-3.5,3.5-9.2,3.5-12.7,0v0c-0.1-0.1-0.2-0.2-0.2-0.3
	c0,0-1-0.5-2,0.4c-1,1-0.4,2-0.4,2c0.1,0.1,0.2,0.2,0.2,0.3c4.6,4.6,12.2,4.6,16.8,0l5.7-5.7c4.6-4.6,4.6-12.2,0-16.8h0
	c-4.6-4.6-12.2-4.6-16.8,0l-4.1,4.1C36.8,26.5,36.2,27.8,36.9,28.5z"/>
</svg>
