<svg width="17" height="20" viewBox="0 0 17 20" fill="none" xmlns="http://www.w3.org/2000/svg">
<path d="M8.5 0C5 0 2.5 2.243 2.5 5V8H2.41421C1.88378 8 1.37507 8.21071 1 8.58579C0.624927 8.96086 0.414213 9.46957 0.414213 10V18C0.414213 18.5304 0.624927 19.0391 1 19.4142C1.37507 19.7893 1.88378 20 2.41421 20H14.4142C14.9446 20 15.4534 19.7893 15.8284 19.4142C16.2035 19.0391 16.4142 18.5304 16.4142 18V10C16.4142 9.46957 16.2035 8.96086 15.8284 8.58579C15.4534 8.21071 14.9446 8 14.4142 8V5C14.4142 2.243 12 0 8.5 0ZM4.5 5C4.5 3.346 6 2 8.5 2C11 2 12.5 3.346 12.5 5V8H4.5V5ZM9.41421 15.723V18H7.41421V15.723C7.0646 15.5228 6.78387 15.2213 6.60904 14.8584C6.43421 14.4954 6.3735 14.0879 6.4349 13.6898C6.4963 13.2916 6.67693 12.9214 6.95298 12.6279C7.22903 12.3345 7.58753 12.1316 7.98121 12.046C8.27363 11.9813 8.57683 11.9832 8.86846 12.0513C9.16009 12.1194 9.4327 12.2521 9.6662 12.4397C9.8997 12.6272 10.0881 12.8647 10.2176 13.1348C10.347 13.4049 10.4142 13.7005 10.4142 14C10.4136 14.3497 10.3209 14.6932 10.1453 14.9956C9.96978 15.2981 9.7176 15.549 9.41421 15.723Z" fill="#0093D4"/>
</svg>
