<?xml version="1.0" encoding="utf-8"?>
<!-- Generator: Adobe Illustrator 25.2.2, SVG Export Plug-In . SVG Version: 6.00 Build 0)  -->
<svg version="1.1" id="Layer_1" xmlns="http://www.w3.org/2000/svg" xmlns:xlink="http://www.w3.org/1999/xlink" x="0px" y="0px"
	 viewBox="0 0 49 48" style="enable-background:new 0 0 49 48;" xml:space="preserve">
<style type="text/css">
	.st0{fill:none;stroke:#0082BA;stroke-width:6;}
	.st1{fill:#0082BA;}
</style>
<path class="st0" d="M45.5,24c0,11.6-9.4,21-21,21c-11.6,0-21-9.4-21-21s9.4-21,21-21C36.1,3,45.5,12.4,45.5,24z"/>
<path class="st1" d="M10.5,24c0,2.8,0.8,5.5,2.4,7.8c1.5,2.3,3.7,4.1,6.3,5.2c2.6,1.1,5.4,1.3,8.1,0.8c2.7-0.5,5.2-1.9,7.2-3.8
	c2-2,3.3-4.5,3.8-7.2c0.5-2.7,0.3-5.5-0.8-8.1c-1.1-2.6-2.9-4.7-5.2-6.3c-2.3-1.5-5-2.4-7.8-2.4v14H10.5z"/>
</svg>
