<?xml version="1.0" encoding="utf-8"?>
<!-- Generator: Adobe Illustrator 25.2.2, SVG Export Plug-In . SVG Version: 6.00 Build 0)  -->
<svg version="1.1" id="Layer_1" xmlns="http://www.w3.org/2000/svg" xmlns:xlink="http://www.w3.org/1999/xlink" x="0px" y="0px"
	 viewBox="0 0 20 20" style="enable-background:new 0 0 20 20;" xml:space="preserve">
<style type="text/css">
	.st0{fill:none;stroke:#C2EDFF;stroke-width:2;stroke-dasharray:2,2;}
	.st1{fill:none;stroke:#C2EDFF;stroke-width:2;stroke-linecap:round;}
	.st2{fill:#C2EDFF;}
</style>
<circle class="st0" cx="10" cy="10" r="9"/>
<path class="st1" d="M10.8,5.3v6"/>
<path class="st1" d="M6.6,11.3h4"/>
<path class="st2" d="M10,0C9.4,0,8.9,0.1,8.3,0.2l0.2,2.1C9,2.1,9.5,2.1,10,2.1c4.4,0,7.9,3.5,7.9,7.9s-3.5,7.9-7.9,7.9
	S2.1,14.4,2.1,10c0-0.1,0-0.1,0-0.2L0,9.5C0,9.7,0,9.8,0,10c0,5.5,4.5,10,10,10s10-4.5,10-10S15.5,0,10,0z"/>
</svg>
