<svg width="22" height="20" viewBox="0 0 22 20" fill="none" xmlns="http://www.w3.org/2000/svg">
<path d="M6.87319 4.87334C7.91264 3.83398 9.24347 3.13513 10.6892 2.86946C12.1349 2.6038 13.6273 2.78387 14.9683 3.38581C16.3094 3.98774 17.4358 4.98309 18.1982 6.23988C18.9606 7.49666 19.3229 8.9555 19.2372 10.4229C19.1514 11.8904 18.6217 13.2971 17.7181 14.4565C16.8146 15.616 15.5799 16.4734 14.1779 16.9151C12.7759 17.3567 11.2727 17.3618 9.86774 16.9296C8.46278 16.4974 7.22238 15.6483 6.31104 14.4949C5.50306 13.4756 3.9033 14.6654 4.70874 15.6928C6.02771 17.382 7.89231 18.5608 9.98397 19.0277C12.0756 19.4947 14.2645 19.2209 16.1767 18.2531C18.0889 17.2852 19.6056 15.6835 20.4678 13.7214C21.3301 11.7593 21.4842 9.55878 20.904 7.49567C20.3238 5.43257 19.0452 3.63495 17.2866 2.40996C15.5281 1.18497 13.3987 0.608629 11.2624 0.779401C9.12606 0.950173 7.11532 1.85746 5.5737 3.34625C4.03209 4.83505 3.05528 6.81295 2.81016 8.94204L2.45378 8.58565C2.26615 8.39802 2.01166 8.29261 1.74631 8.29261C1.48097 8.29261 1.22648 8.39802 1.03885 8.58565C0.851224 8.77328 0.745815 9.02777 0.745815 9.29311C0.745815 9.55846 0.851224 9.81294 1.03885 10.0006L2.94663 11.9083C2.95104 11.9284 2.95552 11.9484 2.96006 11.9685L2.98411 11.9444L3.16088 12.1212C3.34842 12.3087 3.60277 12.4141 3.86799 12.4141C4.13321 12.4141 4.38756 12.3087 4.5751 12.1212L6.69642 9.99987C6.88395 9.81233 6.98931 9.55798 6.98931 9.29276C6.98931 9.02754 6.88395 8.77319 6.69642 8.58565C6.50888 8.39812 6.25453 8.29276 5.98931 8.29276C5.72409 8.29276 5.46974 8.39812 5.2822 8.58565L4.81127 9.05659C5.01681 7.47245 5.74198 6.00122 6.87319 4.87334Z" fill="white"/>
</svg>
