<?xml version="1.0" encoding="utf-8"?>
<!-- Generator: Adobe Illustrator 25.2.2, SVG Export Plug-In . SVG Version: 6.00 Build 0)  -->
<svg version="1.1" id="Layer_1" xmlns="http://www.w3.org/2000/svg" xmlns:xlink="http://www.w3.org/1999/xlink" x="0px" y="0px"
	 viewBox="0 0 24.4 24.2" style="enable-background:new 0 0 24.4 24.2;" xml:space="preserve">
<style type="text/css">
	.st0{fill:#83D4EA;}
</style>
<path class="st0" d="M12.2,0.1C5.6,0.1,0.3,5.5,0.3,12.1S5.6,24,12.2,24s11.9-5.3,11.9-11.9S18.8,0.1,12.2,0.1z M13.9,16.3
	c-0.6,0.5-1.4,0.8-2.4,0.8c-0.4-0.1-1.2-0.2-2.1-0.4v-1.2c0.9,0.4,1.6,0.5,2.1,0.5c0.6,0,1.1-0.2,1.5-0.5c0.4-0.4,0.6-0.8,0.6-1.4
	c0-1.3-0.9-2-2.8-2h-0.5v-0.8h0.4c1.7,0,2.6-0.6,2.6-1.8c0-1-0.6-1.4-1.7-1.4c-0.6,0-1.3,0.2-2.1,0.5V7.5c0.7-0.2,1.5-0.4,2.2-0.4
	c0.9,0,1.6,0.2,2.1,0.6s0.7,0.9,0.7,1.6c0,1.1-0.7,1.9-2,2.4c1.5,0.4,2.3,1.2,2.3,2.5C14.8,15.1,14.5,15.8,13.9,16.3z"/>
</svg>
