<?xml version="1.0" encoding="utf-8"?>
<!-- Generator: Adobe Illustrator 25.2.2, SVG Export Plug-In . SVG Version: 6.00 Build 0)  -->
<svg version="1.1" id="Layer_1" xmlns="http://www.w3.org/2000/svg" xmlns:xlink="http://www.w3.org/1999/xlink" x="0px" y="0px"
	 viewBox="0 0 24.4 24.2" style="enable-background:new 0 0 24.4 24.2;" xml:space="preserve">
<style type="text/css">
	.st0{fill:#83D4EA;}
</style>
<path class="st0" d="M12.2,0.1C5.6,0.1,0.3,5.5,0.3,12.1S5.6,24,12.2,24s11.9-5.3,11.9-11.9S18.8,0.1,12.2,0.1z M15,15.8v1.1H9.3
	v-1.1C9.7,15,10.4,14,11.6,13l0.7-0.6c0.9-0.8,1.4-1.7,1.4-2.5c0-0.5-0.2-0.9-0.5-1.2s-0.7-0.5-1.3-0.5c-0.7,0-1.4,0.3-2.3,0.8V7.9
	c0.8-0.4,1.7-0.6,2.5-0.6c0.9,0,1.6,0.2,2.1,0.7S15,9.1,15,9.9c0,0.6-0.1,1.1-0.4,1.5c-0.3,0.4-0.8,1-1.5,1.6l-0.5,0.4
	c-1,0.9-1.6,1.7-1.7,2.4H15z"/>
</svg>
