<svg width="49" height="48" viewBox="0 0 49 48" fill="none" xmlns="http://www.w3.org/2000/svg">
<path d="M46.675 23.9197C45.249 22.4557 44.931 20.2315 45.889 18.4207C46.573 17.1301 46.621 15.5956 46.017 14.2627C45.415 12.9318 44.231 11.9598 42.815 11.6372C40.833 11.1835 39.371 9.4856 39.209 7.44087C39.091 5.98295 38.307 4.66214 37.085 3.87167C35.867 3.07919 34.351 2.90779 32.985 3.4099C31.073 4.10962 28.933 3.47442 27.701 1.84509C26.821 0.683593 25.453 0 24.001 0C22.551 0 21.183 0.683593 20.303 1.84509C19.077 3.47644 16.937 4.11164 15.025 3.41191C13.661 2.91182 12.145 3.08322 10.925 3.87369C9.70502 4.66416 8.91902 5.98496 8.80302 7.44289C8.63902 9.48762 7.17902 11.1875 5.19702 11.6392C3.78102 11.9619 2.59702 12.9338 1.99502 14.2647C1.39302 15.5956 1.44102 17.1322 2.12502 18.4207C3.08302 20.2295 2.76502 22.4557 1.34102 23.9197C0.32302 24.9622 -0.15298 26.4242 0.0530204 27.872C0.25902 29.3199 1.12502 30.5882 2.39302 31.3001C4.16902 32.2982 5.09702 34.345 4.68102 36.3514C4.38702 37.7831 4.76902 39.2713 5.71902 40.3763C6.67102 41.4834 8.07902 42.0782 9.52302 41.9855C11.555 41.8584 13.429 43.0744 14.157 44.988C14.675 46.3552 15.797 47.3978 17.191 47.8091C18.581 48.2205 20.085 47.9543 21.253 47.0892C22.891 45.8733 25.125 45.8733 26.761 47.0892C27.929 47.9563 29.433 48.2225 30.823 47.8091C32.217 47.3978 33.339 46.3532 33.859 44.988C34.585 43.0744 36.461 41.8564 38.491 41.9855C39.939 42.0782 41.345 41.4834 42.295 40.3763C43.245 39.2713 43.629 37.7831 43.333 36.3514C42.919 34.345 43.845 32.2982 45.623 31.3001C46.889 30.5862 47.753 29.3199 47.961 27.872C48.169 26.4242 47.691 24.9622 46.675 23.9197ZM21.507 34.8693L12.507 26.0693L16.221 22.3246L21.507 27.378L32.793 15.7146L36.507 19.4592L21.507 34.8693Z" fill="#12CD8A"/>
</svg>
