<svg width="20" height="20" viewBox="0 0 20 20" fill="none" xmlns="http://www.w3.org/2000/svg">
<path fill-rule="evenodd" clip-rule="evenodd" d="M0 10C0 4.47714 4.47718 0 10.0001 0C15.5229 0 20 4.47714 20 10C20 15.5229 15.5229 20 10.0001 20C4.47718 20 0 15.5229 0 10ZM5.08898 12.3936C4.56013 11.9498 4.49115 11.1614 4.9349 10.6326C5.37866 10.1037 6.1671 10.0347 6.69594 10.4785L8.93024 12.3533L13.4833 6.92714C13.9271 6.39829 14.7155 6.32932 15.2444 6.77307C15.7732 7.21682 15.8422 8.00526 15.3984 8.53411L10.0427 14.9169C9.59891 15.4457 8.80967 15.5156 8.28083 15.0719L5.08898 12.3936Z" fill="#12CD8A"/>
</svg>
