<?xml version="1.0" encoding="utf-8"?>
<!-- Generator: Adobe Illustrator 25.2.2, SVG Export Plug-In . SVG Version: 6.00 Build 0)  -->
<svg version="1.1" id="Layer_1" xmlns="http://www.w3.org/2000/svg" xmlns:xlink="http://www.w3.org/1999/xlink" x="0px" y="0px"
	 viewBox="0 0 20 20" style="enable-background:new 0 0 20 20;" xml:space="preserve">
<style type="text/css">
	.st0{fill-rule:evenodd;clip-rule:evenodd;fill:#FFDB5D;}
	.st1{fill-rule:evenodd;clip-rule:evenodd;fill:#006997;}
</style>
<path class="st0" d="M9,0.6c0.4-0.8,1.6-0.8,2,0l8.9,17.8c0.4,0.7-0.2,1.6-1,1.6H1.1c-0.8,0-1.3-0.9-1-1.6L9,0.6z"/>
<path class="st1" d="M10,16.7c-0.7,0-1.2-0.5-1.2-1.2c0-0.7,0.5-1.2,1.2-1.2c0.7,0,1.2,0.5,1.2,1.2C11.2,16.1,10.6,16.7,10,16.7z
	 M10.5,12.7c0.2-1.3,1-5.2,1.1-6c0.1-1-0.6-1.8-1.6-1.8c-1,0-1.7,0.8-1.6,1.8c0.1,0.8,0.8,4.7,1.1,6c0,0.2,0.3,0.4,0.5,0.4h0
	C10.3,13.2,10.5,13,10.5,12.7z"/>
</svg>
