<svg width="24" height="16" viewBox="0 0 24 16" fill="none" xmlns="http://www.w3.org/2000/svg">
<path fill-rule="evenodd" clip-rule="evenodd" d="M12.01 16C6.945 16 2.424 11.789 0 7.576C2.418 3.473 6.943 0 12.01 0C17.145 0 21.645 3.453 24.009 7.564C21.768 11.994 17.283 16 12.01 16ZM1.168 7.584C2.011 8.915 6.186 15 12.01 15C18.315 15 22.122 8.897 22.861 7.595C22.089 6.397 18.255 1 12.01 1C5.894 1 1.985 6.355 1.168 7.584ZM12 3C14.76 3 17 5.24 17 8C17 10.76 14.76 13 12 13C9.24 13 7 10.76 7 8C7 5.24 9.24 3 12 3ZM12 4C14.208 4 16 5.792 16 8C16 10.208 14.208 12 12 12C9.792 12 8 10.208 8 8C8 5.792 9.792 4 12 4Z" fill="#333333"/>
</svg>
