<?xml version="1.0" encoding="utf-8"?>
<!-- Generator: Adobe Illustrator 25.2.2, SVG Export Plug-In . SVG Version: 6.00 Build 0)  -->
<svg version="1.1" id="Layer_1" xmlns="http://www.w3.org/2000/svg" xmlns:xlink="http://www.w3.org/1999/xlink" x="0px" y="0px"
	 viewBox="0 0 80 80" style="enable-background:new 0 0 80 80;" xml:space="preserve">
<style type="text/css">
	.st0{fill:#FFFFFF;}
	.st1{fill:#0097DD;}
</style>
<circle class="st0" cx="40" cy="40" r="40"/>
<path class="st1" d="M56.8,68.5H23.2c-1.2,0-2.2-1-2.2-2.2v-4.8c0-1.2,1-2.2,2.2-2.2h33.6c1.2,0,2.2,1,2.2,2.2v4.8
	C59,67.5,58,68.5,56.8,68.5z"/>
<path class="st1" d="M56.7,35.7h-9.1V10.5c0-1.7-1.4-3.1-3.1-3.1h-9c-1.7,0-3.1,1.4-3.1,3.1v25.2h-9.3c-1.5,0-1.3,3.4,0,4.7
	l14.5,14.5c1.3,1.3,3.4,1.3,4.7,0l14.5-14.5C58,39,58.8,35.7,56.7,35.7z"/>
</svg>
