<svg width="24" height="20" viewBox="0 0 24 20" fill="none" xmlns="http://www.w3.org/2000/svg">
<path fill-rule="evenodd" clip-rule="evenodd" d="M8.13721 13.147C7.42721 12.29 6.99121 11.2 6.99121 10C6.99121 7.24 9.23221 5 11.9912 5C13.1922 5 14.2822 5.435 15.1392 6.145L17.0362 4.248C15.5952 3.51 13.9142 3 12.0012 3C5.88621 3 1.97621 8.355 1.15921 9.584C1.68821 10.418 3.53821 13.111 6.27221 15.012L8.13721 13.147ZM14.4312 6.853C13.7582 6.323 12.9162 6 11.9912 6C9.78421 6 7.99121 7.792 7.99121 10C7.99121 10.923 8.31521 11.765 8.84521 12.439L14.4312 6.853ZM21.9912 0.707L2.69921 20L1.99121 19.293L5.53921 15.745C3.24121 14.133 1.30521 11.86 -0.00878906 9.576C2.40921 5.473 6.93421 2 12.0012 2C14.0662 2 16.0222 2.566 17.7832 3.501L21.2842 0L21.9912 0.707ZM19.5262 4.586L18.7922 5.32C21.0282 6.939 22.4202 8.924 22.8532 9.594C22.1142 10.897 18.3072 17 12.0012 17C10.5762 17 9.25221 16.632 8.05021 16.062L7.30221 16.81C8.77721 17.552 10.3592 18 12.0012 18C17.2752 18 21.7592 13.994 24.0002 9.564C22.9132 7.673 21.3702 5.927 19.5262 4.586ZM15.9912 10C15.9912 9.446 15.8782 8.918 15.6742 8.438L16.4082 7.704C16.7692 8.394 16.9912 9.168 16.9912 10C16.9912 12.759 14.7512 15 11.9912 15C11.1592 15 10.3872 14.777 9.69621 14.417L10.4302 13.682C10.9102 13.886 11.4372 14 11.9912 14C14.1992 14 15.9912 12.208 15.9912 10Z" fill="#333333"/>
</svg>
