<svg width="24" height="19" viewBox="0 0 24 19" fill="none" xmlns="http://www.w3.org/2000/svg">
<path d="M12.4043 5.102C12.8223 5.11667 13.2513 5.19 13.6913 5.322C14.1313 5.454 14.5237 5.65933 14.8683 5.938C14.509 6.34867 14.1533 6.74833 13.8013 7.137C13.618 6.95367 13.398 6.81067 13.1413 6.708C12.8847 6.60533 12.639 6.55033 12.4043 6.543V8.303C12.6903 8.391 12.98 8.49 13.2733 8.6C13.5667 8.71 13.8343 8.85667 14.0763 9.04C14.3183 9.22333 14.5163 9.447 14.6703 9.711C14.8243 9.975 14.9013 10.305 14.9013 10.701C14.9013 11.1043 14.828 11.4563 14.6813 11.757C14.542 12.0503 14.3513 12.296 14.1093 12.494C13.8747 12.692 13.6033 12.8423 13.2953 12.945C12.9947 13.0477 12.683 13.1027 12.3603 13.11V13.913H11.5463V13.11C11.0697 13.0953 10.5893 13.0073 10.1053 12.846C9.62134 12.6773 9.196 12.428 8.82934 12.098C9.02 11.9 9.21067 11.702 9.40134 11.504C9.59934 11.2987 9.79367 11.0933 9.98434 10.888C10.0797 10.998 10.1933 11.1007 10.3253 11.196C10.4573 11.284 10.593 11.361 10.7323 11.427C10.8717 11.493 11.011 11.548 11.1503 11.592C11.2897 11.6287 11.4217 11.647 11.5463 11.647V9.722C11.231 9.634 10.9267 9.535 10.6333 9.425C10.3473 9.315 10.0943 9.172 9.87434 8.996C9.65434 8.82 9.47834 8.60733 9.34634 8.358C9.21434 8.10133 9.14834 7.78967 9.14834 7.423C9.14834 7.06367 9.22167 6.74467 9.36834 6.466C9.515 6.18 9.70567 5.94167 9.94034 5.751C10.175 5.553 10.439 5.40267 10.7323 5.3C11.0257 5.19 11.3153 5.12767 11.6013 5.113V4.354H12.4043V5.102ZM11.6013 6.521C11.4033 6.543 11.2237 6.62 11.0623 6.752C10.9083 6.87667 10.8313 7.06 10.8313 7.302C10.8313 7.53667 10.901 7.71633 11.0403 7.841C11.1797 7.96567 11.3667 8.05733 11.6013 8.116V6.521ZM12.3603 11.658C12.6097 11.6433 12.804 11.5627 12.9433 11.416C13.09 11.262 13.1633 11.0567 13.1633 10.8C13.1633 10.5433 13.0863 10.3527 12.9323 10.228C12.7857 10.096 12.595 9.99333 12.3603 9.92V11.658Z" fill="white"/>
<path d="M0 1C0 0.447715 0.447715 0 1 0H23C23.5523 0 24 0.447715 24 1V10.6713C23.175 9.65183 21.9136 9 20.5 9C19.9723 9 19.4658 9.09083 18.9953 9.25771C18.9984 9.17219 19 9.08628 19 9C19 5.13401 15.866 2 12 2C8.13401 2 5 5.13401 5 9C5 12.866 8.13401 16 12 16C12.0092 16 12.0183 16 12.0275 15.9999C12.0658 16.3467 12.1435 16.6816 12.2561 17H1C0.447716 17 0 16.5523 0 16V1Z" fill="white"/>
<path d="M17.8551 11.2076C19.6782 11.7826 21 13.4869 21 15.5C21 16.0227 20.9109 16.5247 20.747 16.9914C22.5647 16.8647 24 15.35 24 13.5C24 11.567 22.433 10 20.5 10C19.4438 10 18.4969 10.4679 17.8551 11.2076Z" fill="white"/>
<path fill-rule="evenodd" clip-rule="evenodd" d="M16.5 19C18.433 19 20 17.433 20 15.5C20 13.567 18.433 12 16.5 12C14.567 12 13 13.567 13 15.5C13 17.433 14.567 19 16.5 19Z" fill="white"/>
</svg>
