<svg width="18" height="21" viewBox="0 0 18 21" fill="none" xmlns="http://www.w3.org/2000/svg">
<path d="M9 0C6.79086 0 5 1.79086 5 4V7C5 9.20914 6.79086 11 9 11C11.2091 11 13 9.20914 13 7V4C13 1.79086 11.2091 0 9 0Z" fill="white"/>
<path d="M0 18.0469C0 14.5272 2.02046 11.4794 4.96483 10C5.87464 11.2411 7.34322 12.0469 9 12.0469C10.6568 12.0469 12.1254 11.2411 13.0352 10C15.9795 11.4794 18 14.5272 18 18.0469C18 19.0176 13.9706 20.0469 9 20.0469C4.02944 20.0469 0 19.0874 0 18.0469Z" fill="white"/>
</svg>
