<svg width="24" height="24" viewBox="0 0 24 24" fill="none" xmlns="http://www.w3.org/2000/svg">
<g filter="url(#filter0_b)">
<path fill-rule="evenodd" clip-rule="evenodd" d="M20.1883 13.1702C20.1883 13.5186 19.9031 13.8032 19.5549 13.8032H18.7956C18.4475 13.8032 17.9556 14.4236 17.8527 14.6468C17.7491 14.8696 17.8655 15.254 18.1115 15.5003L18.6353 16.0235C18.8813 16.2695 18.8813 16.6727 18.6353 16.9191L16.9186 18.6353C16.6719 18.8814 16.2693 18.8814 16.023 18.6353L15.5003 18.1124C15.2536 17.8659 14.4663 17.9386 14.2316 18.0178C13.9961 18.0973 13.8033 18.4473 13.8033 18.7956V19.5548C13.8033 19.9032 13.5182 20.188 13.1701 20.188H10.7425C10.3944 20.188 10.1096 19.9032 10.1096 19.5548V18.6984C10.1096 18.3499 9.54552 17.8457 9.34197 17.741C9.13917 17.6368 8.7723 17.7524 8.52588 17.999L7.88924 18.6353C7.64325 18.8818 7.23998 18.8818 6.9943 18.6353L5.27733 16.9188C5.03122 16.6727 5.03122 16.2698 5.27733 16.0235L6.01011 15.291C6.25642 15.045 6.24581 14.3525 6.18224 14.1576C6.11867 13.9628 5.78226 13.8032 5.43343 13.8032H4.35766C4.00957 13.8032 3.72463 13.5186 3.72463 13.1702V10.7429C3.72463 10.3946 4.00957 10.1097 4.35766 10.1097H5.53117C5.87926 10.1097 6.33878 9.6492 6.41922 9.48142C6.49934 9.31396 6.36318 8.97532 6.11719 8.72921L5.27733 7.88935C5.03154 7.64336 5.03154 7.24009 5.27733 6.99409L6.9943 5.27775C7.2403 5.03144 7.64325 5.03144 7.88924 5.27775L8.72911 6.1173C8.97574 6.36371 9.61715 6.35268 9.79215 6.28603C9.96683 6.21907 10.1096 5.87937 10.1096 5.5316V4.35797C10.1096 4.00968 10.3944 3.72484 10.7425 3.72484H13.1704C13.5185 3.72484 13.8033 4.00968 13.8033 4.35797V5.43365C13.8033 5.78205 14.3167 6.23276 14.5035 6.31267C14.6904 6.39247 15.0449 6.25632 15.2915 6.00958L16.0236 5.27711C16.2693 5.03144 16.6725 5.03144 16.9193 5.27743L18.6357 6.99377C18.8813 7.24009 18.8813 7.64336 18.6357 7.88935L17.9982 8.52609C17.7525 8.77209 17.827 9.50657 17.9118 9.72083C17.9957 9.93467 18.3501 10.1097 18.6982 10.1097H19.5549C19.9031 10.1097 20.1883 10.3946 20.1883 10.7426V13.1702ZM11.9564 0C5.3531 0 0 5.35299 0 11.9564C0 18.5598 5.3531 23.9129 11.9564 23.9129C18.5598 23.9129 23.9129 18.5598 23.9129 11.9564C23.9129 5.35299 18.5598 0 11.9564 0Z" fill="white"/>
<path fill-rule="evenodd" clip-rule="evenodd" d="M11.9106 7.85981C9.67332 7.85981 7.85978 9.67361 7.85978 11.9109C7.85978 14.1485 9.67332 15.962 11.9106 15.962C14.1478 15.962 15.9617 14.1485 15.9617 11.9109C15.9617 9.67361 14.1481 7.85981 11.9106 7.85981Z" fill="white"/>
</g>
<defs>
<filter id="filter0_b" x="-27.1828" y="-27.1828" width="78.2785" height="78.2785" filterUnits="userSpaceOnUse" color-interpolation-filters="sRGB">
<feFlood flood-opacity="0" result="BackgroundImageFix"/>
<feGaussianBlur in="BackgroundImage" stdDeviation="13.5914"/>
<feComposite in2="SourceAlpha" operator="in" result="effect1_backgroundBlur"/>
<feBlend mode="normal" in="SourceGraphic" in2="effect1_backgroundBlur" result="shape"/>
</filter>
</defs>
</svg>
