<svg width="24" height="24" viewBox="0 0 24 24" fill="none" xmlns="http://www.w3.org/2000/svg">
<path d="M21.3334 -0.000183105H2.66624C1.19954 -0.000183105 -0.000488281 1.19985 -0.000488281 2.66655V21.3337C-0.000488281 22.8017 1.19954 24.0004 2.66624 24.0004H11.9998V14.6668H9.33307V11.3668H11.9998V8.63336C11.9998 5.74796 13.6158 3.72124 17.0213 3.72124L19.4253 3.72391V7.19733H17.8293C16.5039 7.19733 15.9999 8.19202 15.9999 9.11471V11.3681H19.424L18.6666 14.6668H15.9999V24.0004H21.3334C22.8001 24.0004 24.0001 22.8017 24.0001 21.3337V2.66655C24.0001 1.19985 22.8001 -0.000183105 21.3334 -0.000183105Z" fill="#F20574"/>
</svg>
