<svg width="100" height="85" viewBox="0 0 100 85" fill="none" xmlns="http://www.w3.org/2000/svg">
<path d="M71.8191 72.3649L71.963 74.9123L73.4726 72.9046L71.8191 72.3649Z" fill="#0081B8"/>
<path d="M9.61294 22.7742L9.60159 25.322L11.2252 24.7022L9.61294 22.7742Z" fill="#0081B8"/>
<path d="M57.1595 62.2334L58.79 64.1544L58.7831 61.6136L57.1595 62.2334Z" fill="#0081B8"/>
<path fill-rule="evenodd" clip-rule="evenodd" d="M29.0193 0.183289C26.5614 0.183289 24.5689 2.17578 24.5689 4.63363V9.66358L2.90171 17.9605C0.612612 18.837 -0.566504 21.4195 0.268087 23.7286L21.0516 81.2309C21.8862 83.54 24.4184 84.7013 26.7075 83.8247L49.8343 74.9689L76.5161 83.7044C78.8474 84.4677 81.3158 83.1812 82.0294 80.8309L99.8057 22.2771C100.519 19.9268 99.2076 17.4027 96.8763 16.6394L74.4128 9.28498V4.63363C74.4128 2.17578 72.4203 0.183289 69.9624 0.183289H29.0193ZM68.11 59.4732L68.3364 58.9278H67.9129L68.11 59.4732ZM60.3976 38.1349L61.6779 36.8302L61.6717 36.8278C64.4883 33.7247 64.4172 28.8812 61.4583 25.866C59.7317 24.1066 57.3943 23.3491 55.1418 23.5936L60.3976 38.1349ZM34.3854 5.90462L34.3056 5.7124H32.6803L32.2579 6.71928L34.3854 5.90462ZM70.1831 71.3834C70.7789 71.3543 71.344 71.2081 71.8557 70.9672L74.2994 71.7648L75.2062 70.6305L76.9712 71.2065L72.2236 76.9421L70.6816 76.4388L70.1831 71.3834ZM74.4128 55.1322V41.6565C78.2165 42.9816 80.4258 46.9549 79.3563 50.5894C78.658 52.9622 76.7331 54.61 74.4128 55.1322ZM74.4128 40.2423V30.5343C76.1247 32.3743 76.8747 34.9551 76.1598 37.3845C75.8266 38.5167 75.2142 39.4838 74.4128 40.2423ZM13.0751 26.8848L12.1103 25.7983L9.61108 26.7524L9.59986 28.2115L7.90327 28.8592L8.25355 21.315L9.76771 20.7369L14.8082 26.2232L13.0751 26.8848ZM29.1438 27.6147L47.6685 38.298L40.4207 58.8707L21.896 48.1873L29.1438 27.6147ZM58.7554 60.1902L58.794 58.7206L60.5271 58.059L60.2041 65.5928L58.69 66.1709L53.6221 60.695L55.3187 60.0473L56.2561 61.1444L58.7554 60.1902Z" fill="#0081B8"/>
</svg>
