<svg width="87" height="86" viewBox="0 0 87 86" fill="none" xmlns="http://www.w3.org/2000/svg">
<path d="M32.0622 52.285H32.4596V52.6342C32.4596 52.8188 32.4395 53.0114 32.3994 53.2121C32.3673 53.4048 32.3111 53.5814 32.2308 53.7419C32.1586 53.9024 32.0582 54.0349 31.9298 54.1392C31.8014 54.2436 31.6448 54.2958 31.4602 54.2958C31.2756 54.2958 31.111 54.2195 30.9665 54.067C30.8301 53.9145 30.7618 53.6777 30.7618 53.3566C30.7618 53.1399 30.798 52.9633 30.8702 52.8268C30.9425 52.6823 31.0388 52.5699 31.1592 52.4897C31.2796 52.4094 31.4161 52.3572 31.5686 52.3331C31.7291 52.301 31.8937 52.285 32.0622 52.285Z" fill="#0081B8"/>
<path d="M40.9164 52.285H41.3137V52.6342C41.3137 52.8188 41.2937 53.0114 41.2535 53.2121C41.2214 53.4048 41.1652 53.5814 41.085 53.7419C41.0127 53.9024 40.9124 54.0349 40.7839 54.1392C40.6555 54.2436 40.499 54.2958 40.3144 54.2958C40.1297 54.2958 39.9652 54.2195 39.8207 54.067C39.6842 53.9145 39.616 53.6777 39.616 53.3566C39.616 53.1399 39.6521 52.9633 39.7244 52.8268C39.7966 52.6823 39.8929 52.5699 40.0133 52.4897C40.1337 52.4094 40.2702 52.3572 40.4227 52.3331C40.5833 52.301 40.7478 52.285 40.9164 52.285Z" fill="#0081B8"/>
<path d="M56.4204 51.4542C56.4204 50.9966 56.3482 50.6274 56.2037 50.3464C56.0592 50.0574 55.8344 49.913 55.5294 49.913C55.3528 49.913 55.2003 49.9651 55.0718 50.0695C54.9514 50.1738 54.8511 50.3063 54.7708 50.4668C54.6986 50.6193 54.6424 50.7879 54.6023 50.9725C54.5621 51.1491 54.5421 51.3097 54.5421 51.4542H56.4204Z" fill="#0081B8"/>
<path d="M61.6008 50.3464C61.7453 50.6274 61.8176 50.9966 61.8176 51.4542H59.9392C59.9392 51.3097 59.9593 51.1491 59.9994 50.9725C60.0395 50.7879 60.0957 50.6193 60.168 50.4668C60.2483 50.3063 60.3486 50.1738 60.469 50.0695C60.5974 49.9651 60.75 49.913 60.9265 49.913C61.2316 49.913 61.4563 50.0574 61.6008 50.3464Z" fill="#0081B8"/>
<path d="M67.3953 52.0923C67.3953 51.7953 67.3712 51.5224 67.3231 51.2735C67.2829 51.0167 67.2187 50.7959 67.1304 50.6113C67.0502 50.4187 66.9418 50.2702 66.8053 50.1658C66.6769 50.0534 66.5284 49.9972 66.3598 49.9972C66.1832 49.9972 66.0307 50.0534 65.9023 50.1658C65.7738 50.2702 65.6695 50.4187 65.5892 50.6113C65.5089 50.7959 65.4487 51.0167 65.4086 51.2735C65.3685 51.5224 65.3484 51.7953 65.3484 52.0923C65.3484 52.3813 65.3685 52.6542 65.4086 52.9111C65.4487 53.1599 65.5089 53.3807 65.5892 53.5733C65.6695 53.7579 65.7738 53.9065 65.9023 54.0188C66.0307 54.1232 66.1832 54.1754 66.3598 54.1754C66.5364 54.1754 66.6889 54.1232 66.8174 54.0188C66.9458 53.9065 67.0502 53.7579 67.1304 53.5733C67.2187 53.3807 67.2829 53.1599 67.3231 52.9111C67.3712 52.6542 67.3953 52.3813 67.3953 52.0923Z" fill="#0081B8"/>
<path d="M58.2802 64.2615C58.3284 64.5184 58.3525 64.7913 58.3525 65.0803C58.3525 65.3693 58.3284 65.6422 58.2802 65.899C58.2401 66.1559 58.1759 66.3807 58.0876 66.5733C58.0073 66.758 57.9029 66.9065 57.7745 67.0188C57.6461 67.1232 57.4976 67.1754 57.329 67.1754C57.1524 67.1754 56.9999 67.1232 56.8715 67.0188C56.743 66.9065 56.6387 66.758 56.5584 66.5733C56.4781 66.3807 56.4179 66.1559 56.3778 65.899C56.3377 65.6422 56.3176 65.3693 56.3176 65.0803C56.3176 64.7913 56.3377 64.5184 56.3778 64.2615C56.4179 64.0046 56.4781 63.7839 56.5584 63.5993C56.6387 63.4146 56.743 63.2702 56.8715 63.1658C56.9999 63.0534 57.1524 62.9972 57.329 62.9972C57.4976 62.9972 57.6461 63.0534 57.7745 63.1658C57.9029 63.2702 58.0073 63.4146 58.0876 63.5993C58.1759 63.7839 58.2401 64.0046 58.2802 64.2615Z" fill="#0081B8"/>
<path d="M47.0246 22.5064C47.1387 22.9327 46.8577 23.365 46.3772 23.494C45.9707 23.6031 45.6428 23.4137 45.5536 23.0802C45.4395 22.6536 45.5526 22.1866 46.1287 21.9723L46.8164 21.7281L47.0246 22.5064Z" fill="#0081B8"/>
<path d="M31.8605 23.9702L29.9198 24.491C29.9283 23.8539 30.1467 23.3378 30.7746 23.1693C31.274 23.0352 31.6957 23.2794 31.8396 23.8174C31.8471 23.8452 31.8486 23.8697 31.8501 23.8942C31.8516 23.9185 31.8532 23.9427 31.8605 23.9702Z" fill="#0081B8"/>
<path d="M48.2176 34.0952C47.608 34.2588 46.9216 33.767 46.7234 33.026C46.5251 32.2847 46.8741 31.5155 47.4838 31.3518C48.0934 31.1882 48.7791 31.6797 48.9774 32.421C49.1756 33.162 48.8273 33.9315 48.2176 34.0952Z" fill="#0081B8"/>
<path fill-rule="evenodd" clip-rule="evenodd" d="M47.7954 85.6702L43.3348 83.3396L38.8742 85.6702L34.9948 82.4616L30.1477 83.8123L27.0191 79.8658L21.9974 80.1776L19.7562 75.6656L14.7793 74.9247L13.5235 70.0444L8.80885 68.283L8.59345 63.2475L4.34728 60.5427L5.1818 55.5722L1.58976 52.042L3.4378 47.3537L0.656982 43.1526L3.4378 38.9516L1.58977 34.2632L5.1818 30.7331L4.34728 25.7626L8.59345 23.0577L8.80885 18.0222L13.5235 16.2609L14.7793 11.3806L19.7562 10.6396L21.9974 6.12768L27.0191 6.43944L30.1478 2.49297L34.9948 3.84369L38.8742 0.635071L43.3348 2.96567L47.7954 0.635071L51.6748 3.84369L56.5218 2.49297L59.6505 6.43944L64.6722 6.12768L66.9134 10.6396L71.8903 11.3806L73.1461 16.2609L77.8607 18.0222L78.0761 23.0577L82.3223 25.7626L81.4878 30.7331L85.0798 34.2632L83.2318 38.9516L86.0126 43.1526L83.2318 47.3537L85.0798 52.042L81.4878 55.5722L82.3223 60.5427L78.0761 63.2475L77.8607 68.283L73.1461 70.0444L71.8903 74.9247L66.9134 75.6656L64.6722 80.1776L59.6505 79.8658L56.5218 83.8123L51.6748 82.4616L47.7954 85.6702ZM21.4699 55.1507C21.8311 55.0222 22.1402 54.8537 22.397 54.6449V50.3223H20.0491V51.5746H21.0846V53.778C20.9883 53.8503 20.8598 53.9105 20.6993 53.9586C20.5468 53.9988 20.3742 54.0188 20.1815 54.0188C19.8765 54.0188 19.6116 53.9386 19.3869 53.778C19.1701 53.6175 18.9895 53.3967 18.845 53.1158C18.7005 52.8268 18.5922 52.4937 18.5199 52.1164C18.4477 51.7311 18.4116 51.3217 18.4116 50.8882C18.4116 50.4708 18.4477 50.0735 18.5199 49.6962C18.5922 49.3189 18.7005 48.9898 18.845 48.7089C18.9895 48.4199 19.1701 48.1911 19.3869 48.0226C19.6116 47.854 19.8725 47.7697 20.1695 47.7697C20.7153 47.7697 21.1488 48.0025 21.4699 48.4681L22.3007 47.4566C22.0679 47.1275 21.7669 46.8747 21.3977 46.6981C21.0284 46.5135 20.5909 46.4211 20.0852 46.4211C19.6036 46.4211 19.1701 46.5335 18.7848 46.7583C18.3995 46.975 18.0704 47.2841 17.7975 47.6854C17.5246 48.0788 17.3159 48.5483 17.1714 49.0942C17.0269 49.64 16.9546 50.2381 16.9546 50.8882C16.9546 51.5545 17.0269 52.1605 17.1714 52.7064C17.3239 53.2522 17.5366 53.7218 17.8095 54.1152C18.0905 54.5085 18.4316 54.8135 18.833 55.0302C19.2343 55.239 19.6879 55.3433 20.1936 55.3433C20.6913 55.3433 21.1167 55.2791 21.4699 55.1507ZM26.9704 55.1627V54.1874H26.9464C26.834 54.5165 26.6453 54.7975 26.3804 55.0302C26.1236 55.255 25.8025 55.3674 25.4172 55.3674C25.08 55.3674 24.8071 55.2992 24.5984 55.1627C24.3977 55.0182 24.2412 54.8296 24.1288 54.5968C24.0164 54.364 23.9402 54.0991 23.9001 53.8021C23.8599 53.4971 23.8398 53.188 23.8398 52.875V49.0219H25.2005V52.875C25.2005 53.0355 25.2085 53.192 25.2245 53.3446C25.2406 53.4971 25.2727 53.6375 25.3209 53.766C25.377 53.8864 25.4533 53.9867 25.5496 54.067C25.654 54.1392 25.7864 54.1754 25.947 54.1754C26.252 54.1754 26.4928 54.0269 26.6694 53.7299C26.854 53.4248 26.9464 53.0395 26.9464 52.5739V49.0219H28.307V55.1627H26.9704ZM32.0261 55.0423C32.2589 54.8496 32.4194 54.5847 32.5077 54.2476H32.5318V55.1627H33.6637V51.5144C33.6637 51.0889 33.6275 50.7076 33.5553 50.3705C33.4911 50.0334 33.3787 49.7524 33.2181 49.5276C33.0576 49.2949 32.8449 49.1183 32.58 48.9979C32.3231 48.8774 32.0061 48.8172 31.6288 48.8172C31.2916 48.8172 30.9505 48.8975 30.6053 49.0581C30.2601 49.2106 29.9752 49.4273 29.7504 49.7083L30.4006 50.5631C30.5371 50.3865 30.6976 50.2461 30.8823 50.1417C31.0749 50.0293 31.2876 49.9732 31.5204 49.9732C31.7933 49.9732 32.0101 50.0655 32.1706 50.2501C32.3392 50.4267 32.4235 50.7197 32.4235 51.1291V51.3217H32.0863C31.7973 51.3217 31.5003 51.3538 31.1953 51.418C30.8983 51.4742 30.6254 51.5826 30.3765 51.7431C30.1357 51.9037 29.935 52.1244 29.7745 52.4054C29.622 52.6783 29.5457 53.0315 29.5457 53.465C29.5457 53.8021 29.5939 54.0911 29.6902 54.3319C29.7865 54.5647 29.907 54.7573 30.0514 54.9098C30.204 55.0543 30.3725 55.1587 30.5572 55.2229C30.7418 55.2871 30.9224 55.3192 31.099 55.3192C31.4843 55.3192 31.7933 55.2269 32.0261 55.0423ZM36.5844 50.2019C36.6887 49.7444 36.8533 49.3992 37.078 49.1664C37.3028 48.9336 37.5677 48.8172 37.8727 48.8172H37.9691C38.0012 48.8172 38.0373 48.8253 38.0774 48.8413L38.0052 50.238C37.9169 50.214 37.8206 50.2019 37.7162 50.2019C37.5396 50.2019 37.3831 50.2581 37.2466 50.3705C37.1101 50.4748 36.9938 50.6153 36.8974 50.7919C36.8011 50.9685 36.7289 51.1692 36.6807 51.394C36.6325 51.6187 36.6085 51.8475 36.6085 52.0803V55.1627H35.2238V49.0219H36.5603V50.2019H36.5844ZM40.8803 55.0423C41.1131 54.8496 41.2736 54.5847 41.3619 54.2476H41.386V55.1627H42.5178V51.5144C42.5178 51.0889 42.4817 50.7076 42.4094 50.3705C42.3452 50.0334 42.2328 49.7524 42.0723 49.5276C41.9118 49.2949 41.699 49.1183 41.4341 48.9979C41.1773 48.8774 40.8602 48.8172 40.4829 48.8172C40.1458 48.8172 39.8046 48.8975 39.4595 49.0581C39.1143 49.2106 38.8293 49.4273 38.6046 49.7083L39.2548 50.5631C39.3912 50.3865 39.5518 50.2461 39.7364 50.1417C39.9291 50.0293 40.1418 49.9732 40.3746 49.9732C40.6475 49.9732 40.8642 50.0655 41.0248 50.2501C41.1933 50.4267 41.2776 50.7197 41.2776 51.1291V51.3217H40.9405C40.6515 51.3217 40.3545 51.3538 40.0495 51.418C39.7525 51.4742 39.4795 51.5826 39.2307 51.7431C38.9899 51.9037 38.7892 52.1244 38.6287 52.4054C38.4761 52.6783 38.3999 53.0315 38.3999 53.465C38.3999 53.8021 38.448 54.0911 38.5444 54.3319C38.6407 54.5647 38.7611 54.7573 38.9056 54.9098C39.0581 55.0543 39.2267 55.1587 39.4113 55.2229C39.5959 55.2871 39.7765 55.3192 39.9531 55.3192C40.3384 55.3192 40.6475 55.2269 40.8803 55.0423ZM45.4144 49.0219V49.9972H45.4385C45.5509 49.6681 45.7355 49.3912 45.9924 49.1664C46.2573 48.9336 46.5824 48.8172 46.9677 48.8172C47.3048 48.8172 47.5737 48.8895 47.7744 49.034C47.9831 49.1704 48.1437 49.3551 48.2561 49.5878C48.3684 49.8206 48.4447 50.0896 48.4848 50.3946C48.525 50.6916 48.545 50.9966 48.545 51.3097V55.1627H47.1844V51.3097C47.1844 51.1572 47.1764 51.0046 47.1603 50.8521C47.1443 50.6916 47.1082 50.5471 47.052 50.4187C47.0038 50.2902 46.9276 50.1899 46.8232 50.1176C46.7269 50.0374 46.5984 49.9972 46.4379 49.9972C46.1329 49.9972 45.888 50.1498 45.7034 50.4548C45.5268 50.7598 45.4385 51.1451 45.4385 51.6107V55.1627H44.0779V49.0219H45.4144ZM51.5056 53.2241V50.0695H52.5773V49.0219H51.5056V47.4566H50.2293V49.0219H49.4587V50.0695H50.2293V53.5252C50.2293 54.1031 50.3417 54.5486 50.5665 54.8617C50.7992 55.1667 51.1765 55.3192 51.6983 55.3192C51.8588 55.3192 52.0194 55.3032 52.1799 55.2711C52.3405 55.239 52.4689 55.1988 52.5652 55.1507L52.5411 54.0911C52.4849 54.1232 52.4167 54.1473 52.3364 54.1633C52.2642 54.1794 52.192 54.1874 52.1197 54.1874C51.911 54.1874 51.7545 54.1111 51.6501 53.9586C51.5538 53.8061 51.5056 53.5613 51.5056 53.2241ZM54.53 52.4415C54.53 52.6823 54.5541 52.9111 54.6023 53.1278C54.6504 53.3365 54.7187 53.5211 54.8069 53.6817C54.9033 53.8342 55.0157 53.9586 55.1441 54.055C55.2805 54.1432 55.4371 54.1874 55.6137 54.1874C55.8625 54.1874 56.0592 54.1071 56.2037 53.9466C56.3562 53.786 56.4766 53.6014 56.5649 53.3927L57.5643 53.9707C57.3877 54.3961 57.1348 54.7373 56.8057 54.9941C56.4846 55.243 56.0712 55.3674 55.5655 55.3674C54.8511 55.3674 54.2772 55.0864 53.8437 54.5245C53.4102 53.9626 53.1935 53.1559 53.1935 52.1044C53.1935 51.6147 53.2497 51.1692 53.3621 50.7678C53.4744 50.3585 53.635 50.0093 53.8437 49.7203C54.0524 49.4313 54.2972 49.2106 54.5782 49.0581C54.8671 48.8975 55.1882 48.8172 55.5414 48.8172C55.9348 48.8172 56.2679 48.8975 56.5408 49.0581C56.8218 49.2186 57.0465 49.4393 57.2151 49.7203C57.3917 49.9932 57.5201 50.3183 57.6004 50.6956C57.6807 51.0729 57.7208 51.4823 57.7208 51.9237V52.4415H54.53ZM59.9994 53.1278C59.9512 52.9111 59.9272 52.6823 59.9272 52.4415H63.118V51.9237C63.118 51.4823 63.0778 51.0729 62.9976 50.6956C62.9173 50.3183 62.7888 49.9932 62.6122 49.7203C62.4437 49.4393 62.2189 49.2186 61.938 49.0581C61.665 48.8975 61.3319 48.8172 60.9386 48.8172C60.5854 48.8172 60.2643 48.8975 59.9753 49.0581C59.6944 49.2106 59.4496 49.4313 59.2408 49.7203C59.0321 50.0093 58.8716 50.3585 58.7592 50.7678C58.6468 51.1692 58.5906 51.6147 58.5906 52.1044C58.5906 53.1559 58.8074 53.9626 59.2408 54.5245C59.6743 55.0864 60.2483 55.3674 60.9627 55.3674C61.4684 55.3674 61.8818 55.243 62.2029 54.9941C62.532 54.7373 62.7848 54.3961 62.9614 53.9707L61.962 53.3927C61.8737 53.6014 61.7533 53.786 61.6008 53.9466C61.4563 54.1071 61.2597 54.1874 61.0108 54.1874C60.8342 54.1874 60.6777 54.1432 60.5412 54.055C60.4128 53.9586 60.3004 53.8342 60.2041 53.6817C60.1158 53.5211 60.0476 53.3365 59.9994 53.1278ZM67.3712 55.1627V54.2837H67.3472C67.2589 54.5888 67.1063 54.8456 66.8896 55.0543C66.6809 55.263 66.3759 55.3674 65.9745 55.3674C65.6615 55.3674 65.3805 55.2831 65.1317 55.1145C64.8828 54.946 64.6741 54.7132 64.5055 54.4162C64.337 54.1111 64.2085 53.7579 64.1202 53.3566C64.0319 52.9472 63.9878 52.5057 63.9878 52.0321C63.9878 51.5665 64.0279 51.1371 64.1082 50.7438C64.1965 50.3504 64.3249 50.0133 64.4935 49.7323C64.6621 49.4434 64.8668 49.2186 65.1076 49.0581C65.3564 48.8975 65.6454 48.8172 65.9745 48.8172C66.3117 48.8172 66.5966 48.9136 66.8294 49.1062C67.0622 49.2908 67.2227 49.5236 67.311 49.8046H67.3472V46.0599H68.6837V55.1627H67.3712ZM26.8624 68.1627H28.5241L30.1616 59.6379H28.7649L27.6692 66.2603H27.6451L26.4651 59.6379H24.948L23.8041 66.2603H23.7559L22.6602 59.6379H21.1913L22.8168 68.1627H24.4784L25.6584 61.757H25.6825L26.8624 68.1627ZM32.5885 60.2399C32.5885 60.4807 32.5122 60.6814 32.3597 60.8419C32.2072 61.0025 32.0185 61.0828 31.7938 61.0828C31.561 61.0828 31.3683 61.0025 31.2158 60.8419C31.0713 60.6814 30.9991 60.4807 30.9991 60.2399C30.9991 60.0071 31.0713 59.8064 31.2158 59.6379C31.3683 59.4693 31.561 59.385 31.7938 59.385C32.0266 59.385 32.2152 59.4693 32.3597 59.6379C32.5122 59.8064 32.5885 60.0071 32.5885 60.2399ZM31.1195 68.1627V62.0219H32.4681V68.1627H31.1195ZM35.4668 62.9972V62.0219H34.1302V68.1627H35.4908V64.6107C35.4908 64.1451 35.5791 63.7598 35.7557 63.4548C35.9404 63.1498 36.1852 62.9972 36.4902 62.9972C36.6508 62.9972 36.7792 63.0374 36.8755 63.1176C36.9799 63.1899 37.0561 63.2902 37.1043 63.4187C37.1605 63.5471 37.1966 63.6916 37.2127 63.8521C37.2287 64.0046 37.2367 64.1572 37.2367 64.3097V68.1627H38.5973V64.3097C38.5973 63.9966 38.5773 63.6916 38.5371 63.3946C38.497 63.0896 38.4207 62.8206 38.3084 62.5878C38.196 62.3551 38.0354 62.1704 37.8267 62.034C37.6261 61.8895 37.3571 61.8172 37.02 61.8172C36.6347 61.8172 36.3096 61.9336 36.0447 62.1664C35.7878 62.3912 35.6032 62.6681 35.4908 62.9972H35.4668ZM41.5459 62.0219V62.9972H41.57C41.6824 62.6681 41.867 62.3912 42.1239 62.1664C42.3888 61.9336 42.7138 61.8172 43.0992 61.8172C43.4363 61.8172 43.7052 61.8895 43.9059 62.034C44.1146 62.1704 44.2751 62.3551 44.3875 62.5878C44.4999 62.8206 44.5761 63.0896 44.6163 63.3946C44.6564 63.6916 44.6765 63.9966 44.6765 64.3097V68.1627H43.3159V64.3097C43.3159 64.1572 43.3079 64.0046 43.2918 63.8521C43.2757 63.6916 43.2396 63.5471 43.1834 63.4187C43.1353 63.2902 43.059 63.1899 42.9547 63.1176C42.8583 63.0374 42.7299 62.9972 42.5694 62.9972C42.2643 62.9972 42.0195 63.1498 41.8349 63.4548C41.6583 63.7598 41.57 64.1451 41.57 64.6107V68.1627H40.2094V62.0219H41.5459ZM47.5046 60.8419C47.6572 60.6814 47.7334 60.4807 47.7334 60.2399C47.7334 60.0071 47.6572 59.8064 47.5046 59.6379C47.3601 59.4693 47.1715 59.385 46.9387 59.385C46.7059 59.385 46.5133 59.4693 46.3608 59.6379C46.2163 59.8064 46.144 60.0071 46.144 60.2399C46.144 60.4807 46.2163 60.6814 46.3608 60.8419C46.5133 61.0025 46.7059 61.0828 46.9387 61.0828C47.1635 61.0828 47.3521 61.0025 47.5046 60.8419ZM46.2644 62.0219V68.1627H47.613V62.0219H46.2644ZM50.6117 62.0219V62.9972H50.6358C50.7482 62.6681 50.9328 62.3912 51.1897 62.1664C51.4546 61.9336 51.7797 61.8172 52.165 61.8172C52.5021 61.8172 52.771 61.8895 52.9717 62.034C53.1804 62.1704 53.3409 62.3551 53.4533 62.5878C53.5657 62.8206 53.642 63.0896 53.6821 63.3946C53.7222 63.6916 53.7423 63.9966 53.7423 64.3097V68.1627H52.3817V64.3097C52.3817 64.1572 52.3737 64.0046 52.3576 63.8521C52.3416 63.6916 52.3054 63.5471 52.2492 63.4187C52.2011 63.2902 52.1248 63.1899 52.0205 63.1176C51.9241 63.0374 51.7957 62.9972 51.6352 62.9972C51.3301 62.9972 51.0853 63.1498 50.9007 63.4548C50.7241 63.7598 50.6358 64.1451 50.6358 64.6107V68.1627H49.2752V62.0219H50.6117ZM59.5084 69.2343C59.5967 68.8651 59.6408 68.4517 59.6408 67.9941V62.0219H58.3404V62.8889H58.3043C58.208 62.5838 58.0555 62.331 57.8468 62.1303C57.6381 61.9216 57.337 61.8172 56.9437 61.8172C56.6226 61.8172 56.3377 61.9015 56.0888 62.0701C55.848 62.2306 55.6433 62.4554 55.4747 62.7444C55.3062 63.0334 55.1777 63.3785 55.0894 63.7799C55.0011 64.1812 54.957 64.6187 54.957 65.0923C54.957 65.5579 54.9971 65.9873 55.0774 66.3807C55.1657 66.774 55.2901 67.1152 55.4507 67.4041C55.6192 67.6931 55.8279 67.9179 56.0768 68.0784C56.3256 68.239 56.6146 68.3192 56.9437 68.3192C57.2808 68.3192 57.5658 68.2269 57.7986 68.0423C58.0394 67.8496 58.204 67.6169 58.2923 67.3439H58.3163V68.0905C58.3163 68.3393 58.2963 68.5681 58.2561 68.7768C58.216 68.9935 58.1478 69.1781 58.0514 69.3307C57.9632 69.4912 57.8427 69.6156 57.6902 69.7039C57.5377 69.8002 57.3491 69.8484 57.1243 69.8484C56.8434 69.8484 56.5825 69.7842 56.3417 69.6558C56.1089 69.5273 55.9042 69.3668 55.7276 69.1741L54.9931 70.1494C55.242 70.4223 55.559 70.6391 55.9443 70.7996C56.3296 70.9682 56.735 71.0525 57.1604 71.0525C57.61 71.0525 57.9912 70.9762 58.3043 70.8237C58.6174 70.6792 58.8742 70.4705 59.0749 70.1976C59.2756 69.9327 59.4201 69.6116 59.5084 69.2343ZM63.8811 63.4066C63.7687 63.2541 63.6283 63.1297 63.4597 63.0334C63.2911 62.937 63.0985 62.8889 62.8818 62.8889C62.6811 62.8889 62.5125 62.9611 62.376 63.1056C62.2396 63.2421 62.1713 63.4267 62.1713 63.6595C62.1713 63.9003 62.2436 64.0769 62.3881 64.1893C62.5326 64.2936 62.7613 64.402 63.0744 64.5144C63.251 64.5786 63.4236 64.6589 63.5921 64.7552C63.7687 64.8435 63.9253 64.9599 64.0617 65.1044C64.2062 65.2488 64.3186 65.4254 64.3989 65.6342C64.4872 65.8348 64.5313 66.0756 64.5313 66.3566C64.5313 66.6937 64.4751 66.9907 64.3628 67.2476C64.2584 67.4965 64.1139 67.7052 63.9293 67.8737C63.7447 68.0423 63.5319 68.1667 63.2911 68.247C63.0583 68.3273 62.8135 68.3674 62.5566 68.3674C62.1713 68.3674 61.8101 68.2911 61.473 68.1386C61.1439 67.9861 60.8629 67.7814 60.6301 67.5245L61.3646 66.6576C61.5091 66.8262 61.6777 66.9707 61.8703 67.0911C62.063 67.2115 62.2877 67.2717 62.5446 67.2717C62.7694 67.2717 62.946 67.1954 63.0744 67.0429C63.2028 66.8904 63.2671 66.6897 63.2671 66.4409C63.2671 66.1519 63.1707 65.9432 62.9781 65.8148C62.7934 65.6863 62.5446 65.5659 62.2315 65.4535C62.071 65.3974 61.9145 65.3291 61.762 65.2489C61.6094 65.1686 61.469 65.0602 61.3405 64.9238C61.2121 64.7873 61.1077 64.6227 61.0275 64.4301C60.9552 64.2294 60.9191 63.9886 60.9191 63.7076C60.9191 63.4106 60.9713 63.1457 61.0756 62.913C61.188 62.6802 61.3325 62.4835 61.5091 62.323C61.6857 62.1544 61.8904 62.03 62.1232 61.9497C62.356 61.8614 62.5968 61.8172 62.8456 61.8172C63.2149 61.8172 63.548 61.8855 63.845 62.0219C64.142 62.1504 64.3949 62.3189 64.6036 62.5276L63.8811 63.4066ZM49.6565 19.3172L50.0829 20.9111C50.2811 21.6522 50.7867 23.3221 52.3959 23.9843C52.3959 23.9843 49.6423 25.0808 48.9721 24.0892C49.4121 24.7414 47.5454 25.6436 46.6399 25.8867C44.9214 26.3479 43.1207 25.8384 42.5804 23.8183C42.1888 22.3546 42.9822 20.9498 44.7432 20.2784L46.1275 19.7481L46.1028 19.6558C46.0135 19.322 45.6593 19.258 44.9199 19.4565C43.8484 19.7441 42.6887 20.3135 42.2778 20.7025L41.5706 18.0517C42.0238 17.6717 43.348 17.058 44.4194 16.7705C47.1176 16.0463 49.0319 16.982 49.6565 19.3172ZM41.747 21.1603C40.1943 21.5771 39.7425 22.7709 40.1837 24.4204L40.8742 27.0016L36.6703 28.1299L34.4164 19.7038L38.185 18.6923L38.6373 20.0881C38.9368 18.8363 39.5989 18.2012 41.0969 17.7992L42.0291 21.1045C42.0291 21.1045 41.9315 21.1108 41.747 21.1603ZM22.8411 19.1745L22.7413 22.6458C22.6872 24.0698 22.6905 25.8562 22.8113 27.1949L22.7743 27.2048C22.186 25.9715 21.2757 24.3486 20.5551 23.2111L18.7379 20.274L14.7086 21.3536L21.7782 32.1357L25.8996 31.0314L26.6124 18.164L22.8411 19.1745ZM34.9404 23.0448C35.0198 23.3416 35.0824 23.7219 35.0829 24.0195L34.2037 25.5461L30.7299 26.4784C31.1722 26.8764 31.9057 27.0969 33.0136 26.7996C33.8635 26.5715 34.503 26.2208 35.0892 25.7456L35.691 28.3648C35.1822 28.7598 34.3998 29.168 33.2912 29.4656C30.2788 30.2741 27.6041 29.0855 26.8456 26.2501C26.1466 23.6371 27.4848 21.3116 30.1657 20.592C32.5119 19.9623 34.4398 21.1733 34.9404 23.0448ZM37.2729 40.507C38.8063 39.4997 39.3596 38.1392 38.6707 35.5639L36.7936 28.5463L40.993 27.4192L42.9544 34.7516C43.8664 38.1612 42.2596 40.8568 40.1331 42.1626L37.2729 40.507ZM43.175 33.9785C42.4661 31.3286 44.072 28.8918 46.6411 28.2022C49.1732 27.5226 51.8167 28.8188 52.5255 31.4688C53.2392 34.1369 51.597 36.5838 49.0649 37.2634C46.4958 37.9529 43.8887 36.6466 43.175 33.9785ZM57.1359 25.4667C56.3225 25.685 55.6678 26.1584 55.2911 26.6767L54.5214 23.7992L51.146 24.7052L53.9585 35.2194L57.3339 34.3134L56.2181 30.142C56.0893 29.6605 56.3836 29.4021 56.6793 29.3228C56.9745 29.2435 57.349 29.3617 57.4431 29.7136L58.5838 33.978L62.3694 32.9619L60.9562 27.6786C60.4654 25.8438 58.9648 24.9758 57.1359 25.4667ZM66.1729 23.0433C65.0829 23.3359 64.168 24.1377 64.0069 24.7963L63.7172 24.0086L60.6849 24.8225L62.8297 32.8406L66.2218 31.9301L65.106 27.7587C64.9772 27.2772 65.2887 27.0142 65.5846 26.9348C65.8806 26.8553 66.2333 26.9794 66.3275 27.3312L67.4682 31.5956L71.2674 30.5759L69.8541 25.2926C69.3633 23.4578 68.0026 22.5522 66.1729 23.0433ZM37.5078 36.0306C37.4499 35.8142 36.8246 33.5004 36.8246 33.5004L33.778 34.3181L34.3905 36.6081L34.4109 36.5686C34.5006 36.3946 34.5785 36.2434 34.7442 36.1989L35.4929 35.998C35.5301 36.0836 35.5507 36.1606 35.571 36.2365C35.7208 36.7966 35.5024 37.6603 34.4239 37.9498C33.6363 38.1612 32.7388 37.7059 32.4698 36.7005C32.2552 35.8981 32.7323 35.0883 33.4938 34.8839L33.4836 34.8458C32.8632 34.9169 32.4779 34.5426 32.3111 33.9188C32.1613 33.359 32.4294 32.8368 33.1025 32.6562C33.6612 32.5062 34.2149 32.6576 34.6137 32.8776L33.8952 30.1917C33.7984 30.2859 33.6377 30.3835 33.3964 30.4483C33.3584 30.4585 33.2803 30.4658 33.1761 30.4756C32.9676 30.4953 32.6546 30.5247 32.3496 30.6066C30.8008 31.0223 29.8873 32.5911 30.3097 34.17C30.4014 34.5131 30.656 34.8542 30.9109 35.0449C30.3415 35.6623 30.1949 36.5879 30.447 37.5304C30.9984 39.5919 32.954 40.596 34.9216 40.0679C37.4737 39.3829 37.8517 37.3165 37.5078 36.0306Z" fill="#0081B8"/>
</svg>
