<svg width="87" height="76" viewBox="0 0 87 76" fill="none" xmlns="http://www.w3.org/2000/svg">
<path fill-rule="evenodd" clip-rule="evenodd" d="M38.1302 6.33235C29.2633 -2.2711 15.2996 -2.10774 6.62623 6.82245C-2.20874 15.919 -2.20874 30.6675 6.62623 39.7641L41.8199 76L77.0137 39.7641L76.9958 39.7571C76.9975 39.7553 76.9991 39.7534 77.0007 39.7516C77.0114 39.7397 77.0221 39.7278 77.0327 39.7159C78.303 38.2951 79.3704 36.7513 80.235 35.1236C84.9319 26.282 83.6448 14.9676 76.3738 7.48128C67.8845 -1.25936 54.3271 -1.60139 45.4412 6.4552C45.0793 6.7833 44.7252 7.12533 44.3795 7.48128C43.3764 8.51408 42.4872 9.61973 41.7119 10.7817C40.842 9.3777 39.8115 8.04872 38.6205 6.82245C38.4589 6.65604 38.2954 6.49267 38.1302 6.33235ZM72.9144 36.0906L72.9043 36.0816C79.1902 29.0842 79.0243 18.1045 72.4284 11.3132C65.7535 4.4407 54.9998 4.4407 48.3249 11.3132C47.5573 12.1036 46.8784 12.948 46.2869 13.8344L41.5405 20.9478L37.0365 13.6785C36.3729 12.6073 35.5863 11.5926 34.6751 10.6544C28.0002 3.78187 17.2465 3.78187 10.5716 10.6544C3.80945 17.6168 3.80945 28.9698 10.5716 35.9322L41.8199 68.1058L72.9144 36.0906Z" fill="#0081B8"/>
<path fill-rule="evenodd" clip-rule="evenodd" d="M83.7447 54.971L83.7544 54.9749L64.6735 75L45.5925 54.9749C40.8025 49.9479 40.8025 41.7974 45.5925 36.7703C50.3826 31.7432 58.1488 31.7432 62.9388 36.7703C63.5846 37.448 64.1432 38.1824 64.6149 38.9583C65.0352 38.3162 65.5173 37.7051 66.0612 37.1344C70.8512 32.1073 78.6174 32.1073 83.4075 37.1344C88.0823 42.0406 88.1947 49.9218 83.7447 54.971Z" fill="#0081B8"/>
</svg>
