<svg width="77" height="83" viewBox="0 0 77 83" fill="none" xmlns="http://www.w3.org/2000/svg">
<path fill-rule="evenodd" clip-rule="evenodd" d="M5 0C2.23858 0 0 2.23858 0 5V78C0 80.7614 2.23858 83 5 83H72C74.7614 83 77 80.7614 77 78V5C77 2.23858 74.7614 0 72 0H5ZM73 19H4V76C4 77.1046 4.89543 78 6 78H71C72.1046 78 73 77.1046 73 76V19Z" fill="#0081B8"/>
<path d="M13 19H15V78H13V19Z" fill="#0081B8"/>
<path d="M25 19H27V78H25V19Z" fill="#0081B8"/>
<path d="M37 19H39V78H37V19Z" fill="#0081B8"/>
<path d="M50 19H52V78H50V19Z" fill="#0081B8"/>
<path d="M61 19H63V78H61V19Z" fill="#0081B8"/>
<path d="M3 69V67H73V69H3Z" fill="#0081B8"/>
<path d="M3 57V55H73V57H3Z" fill="#0081B8"/>
<path d="M3 45V43H73V45H3Z" fill="#0081B8"/>
<path d="M3 32V30H73V32H3Z" fill="#0081B8"/>
<path d="M8 76.6334L5.52786 78L6 75.1056L4 73.0557L6.76393 72.6334L8 70L9.23607 72.6334L12 73.0557L10 75.1056L10.4721 78L8 76.6334Z" fill="#0081B8"/>
<path d="M20 64.6334L17.5279 66L18 63.1056L16 61.0557L18.7639 60.6334L20 58L21.2361 60.6334L24 61.0557L22 63.1056L22.4721 66L20 64.6334Z" fill="#0081B8"/>
<path d="M57 64.6334L54.5279 66L55 63.1056L53 61.0557L55.7639 60.6334L57 58L58.2361 60.6334L61 61.0557L59 63.1056L59.4721 66L57 64.6334Z" fill="#0081B8"/>
<path d="M57 52.6334L54.5279 54L55 51.1056L53 49.0557L55.7639 48.6334L57 46L58.2361 48.6334L61 49.0557L59 51.1056L59.4721 54L57 52.6334Z" fill="#0081B8"/>
<path d="M57 40.6334L54.5279 42L55 39.1056L53 37.0557L55.7639 36.6334L57 34L58.2361 36.6334L61 37.0557L59 39.1056L59.4721 42L57 40.6334Z" fill="#0081B8"/>
</svg>
