<svg width="90" height="89" viewBox="0 0 90 89" fill="none" xmlns="http://www.w3.org/2000/svg">
<path d="M72 43.5272C74.2091 43.5272 76 40.6171 76 37.0272C76 33.4374 74.2091 30.5272 72 30.5272C69.7909 30.5272 68 33.4374 68 37.0272C68 40.6171 69.7909 43.5272 72 43.5272Z" fill="#0081B8"/>
<path d="M67 58.5272C67 62.3932 64.9853 65.5272 62.5 65.5272C60.0147 65.5272 58 62.3932 58 58.5272C58 54.6612 60.0147 51.5272 62.5 51.5272C64.9853 51.5272 67 54.6612 67 58.5272Z" fill="#0081B8"/>
<path fill-rule="evenodd" clip-rule="evenodd" d="M0 17.2005C0 15.0109 1.42465 13.076 3.5155 12.4259L42.031 0.450642C43.9647 -0.150581 46.0353 -0.15058 47.969 0.450643L86.4845 12.4259C88.5754 13.076 90 15.0109 90 17.2005V71.7995C90 73.9891 88.5754 75.924 86.4845 76.5741L47.969 88.5494C46.0353 89.1506 43.9647 89.1506 42.031 88.5494L3.51549 76.5741C1.42464 75.924 0 73.9891 0 71.7996V17.2005ZM33.5 33.5272C35.9853 33.5272 38 30.1694 38 26.0272C38 21.8851 35.9853 18.5272 33.5 18.5272C31.0147 18.5272 29 21.8851 29 26.0272C29 30.1694 31.0147 33.5272 33.5 33.5272ZM27 43.5272C27 47.3932 24.9853 50.5272 22.5 50.5272C20.0147 50.5272 18 47.3932 18 43.5272C18 39.6612 20.0147 36.5272 22.5 36.5272C24.9853 36.5272 27 39.6612 27 43.5272ZM13 67.5272C15.2091 67.5272 17 64.8409 17 61.5272C17 58.2135 15.2091 55.5272 13 55.5272C10.7909 55.5272 9 58.2135 9 61.5272C9 64.8409 10.7909 67.5272 13 67.5272ZM82 20.5272L50 10.5272V79.5272L82 69.5272V20.5272Z" fill="#0081B8"/>
</svg>
