<?xml version="1.0" encoding="utf-8"?>
<!-- Generator: Adobe Illustrator 25.2.2, SVG Export Plug-In . SVG Version: 6.00 Build 0)  -->
<svg version="1.1" id="Layer_1" xmlns="http://www.w3.org/2000/svg" xmlns:xlink="http://www.w3.org/1999/xlink" x="0px" y="0px"
	 viewBox="0 0 80 80" style="enable-background:new 0 0 80 80;" xml:space="preserve">
<style type="text/css">
	.st0{fill:#0076AC;}
</style>
<path class="st0" d="M59.2,37.1c18.5-1.8,20.2-24.3,20.4-26.9c0.2-2.6-1.6-4.4-3.7-4.4c-1.5,0-6.8,0-10.2,0C66,2.9,66.1,1,66.1,1
	H13.5c0,0,0.1,1.9,0.4,4.9c-3.3,0-8.7,0-10.2,0c-2.1,0-3.9,1.8-3.7,4.4s1.9,25.1,20.4,26.8c0,0,0.8,0.5,0.7,0.9
	c-0.2,0.5-2.4,1.6-1.1,3.5c1.3,2,5.9,0,7.2-2.2c0,0,0-0.1-0.1-0.1c2.3,2.1,4.9,3.7,8.1,4.4v25h-8.6c-1.5,0-2.8,1.3-2.8,2.8
	c0,1,0.6,2,1.4,2.4l-4.5,1.5c-0.8,0.3-1.4,0.9-1.4,1.8c0,1,0.9,1.9,2.1,1.9h20.2h1.6h15.2c1.1,0,2.1-0.9,2.1-1.9
	c0-0.8-0.5-1.5-1.4-1.8l-4.1-1.5c0.9-0.4,1.6-1.5,1.6-2.6c0-1.5-1.3-2.8-2.8-2.8H45v-25c2.8-0.8,5.3-2.3,7.4-4.2
	c0,0-0.1,0.1-0.1,0.1c1.3,2.2,5.9,4.2,7.2,2.2s-0.9-3.1-1.1-3.5C58.4,37.5,59.2,37.1,59.2,37.1z M4.7,9.9h9.7
	c1.1,6.7,3.3,15.9,7.7,23.1C19.1,32.8,4.7,30.5,4.7,9.9z M57.4,33.1c4.4-7.2,6.6-16.4,7.7-23.2h9.7C74.7,32.8,60.3,33.2,57.4,33.1z"
	/>
</svg>
